<?xml version="1.0" encoding="UTF-8"?>
<!DOCTYPE svg PUBLIC "-//W3C//DTD SVG 1.1//EN" "http://www.w3.org/Graphics/SVG/1.1/DTD/svg11.dtd">
<!-- Creator: CorelDRAW 2019 (64-Bit) -->
<svg xmlns="http://www.w3.org/2000/svg" xml:space="preserve" width="210mm" height="148mm" version="1.1" style="shape-rendering:geometricPrecision; text-rendering:geometricPrecision; image-rendering:optimizeQuality; fill-rule:evenodd; clip-rule:evenodd"
viewBox="0 0 21000 14800"
 xmlns:xlink="http://www.w3.org/1999/xlink"
 xmlns:xodm="http://www.corel.com/coreldraw/odm/2003">
 <defs>
  <style type="text/css">
   <![CDATA[
    .fil2 {fill:#FEFEFE}
    .fil0 {fill:#2B2A29}
    .fil1 {fill:#E31E24}
    .fil3 {fill:#D4D4BC}
    .fil6 {fill:#C1BFA2}
    .fil7 {fill:#8C8C6B}
    .fil4 {fill:#7E7C54}
    .fil5 {fill:#4D4D4D}
   ]]>
  </style>
 </defs>
 <g id="Layer_x0020_1">
  <metadata id="CorelCorpID_0Corel-Layer"/>
  <g id="_2300066016528">
   <path class="fil0" d="M14273.05 7805.67l-86.94 0c-37.99,0 -69.06,31.08 -69.06,69.03l0 69.06 156 0 0 -138.09zm1211.85 185.63c60.77,0 182.44,33.16 232.37,51.89 46.87,17.57 152.39,60.58 179.03,104.47 76.05,125.32 117.5,311.96 26.75,433.67 100.73,-5.15 204.91,-110.2 235.75,-183.97 50.68,-121.16 6.45,-241.42 -40.23,-342.34 -32.64,-70.64 -34.76,-69.81 -105.08,-105.48 -47.54,-24.08 -96.06,-44.83 -150.59,-60.78 -120.53,-35.24 -244.71,-46.94 -377.14,-51.85l-0.86 154.39zm-10852.84 -585.16c0,0 718.97,-134.04 1166.27,-277.12l693.67 -188.34c81.52,14.62 149.84,32.06 156.4,62.39 6.48,30.36 -431.28,99.82 -990.87,250.21 -3.96,9.39 -937.2,269.89 -1065.35,254.21l39.88 -101.35zm3946.49 2185.38l143.11 -4.87c0,0 -73.11,96.92 -161.58,113.77l18.47 -108.9zm1933.6 -2290.04c18.19,-5.7 181.89,-70.08 194.94,-89.49 7.26,-17.56 9.82,-50.92 15.16,-71.97 5.81,-22.83 16.19,-44.12 22.63,-64.08 -69.03,1.77 -116.88,33.55 -154,70.68 -48.21,48.24 -60.03,80.81 -78.73,154.86zm-2438.03 3249.48c1.06,1.77 2.16,2.59 2.47,5.66l5.19 19.05c3.38,24.91 4.08,78.14 -7.66,96.76l7.42 121.51c17.72,9.55 16.93,6.8 35.12,-13.2 11.55,-12.77 21.18,-28.17 31.55,-42.23 19.37,-26.17 40.58,-61.6 55.51,-90.28 28.64,-54.88 64.86,-135.42 75.19,-210.69 -1.25,-90.47 -85.13,-37.99 -121.11,-13.43 -41.33,28.2 -78.69,60.73 -83.68,126.85zm2384.76 -72.92l5.3 -48.55c47.58,25.53 186.73,118.48 234.34,129.56l19.96 -226.76c-20.23,-31.62 -205.82,-140.99 -246.8,-154.07 -69.49,71.65 -12.88,194.89 -12.8,299.82zm2886.56 -2211.31c98.68,0 192.85,-17.09 293.38,-16.22 95.43,0.82 198.08,-16.19 291.62,-16.19l0 -124.93c-170.38,0.83 -395.18,14.5 -555.3,47.54l-29.7 109.8zm1543.41 2146.53l14.38 40.23c176.59,0.24 294.92,8.64 404.17,-64.51 0,-41.6 -5.65,-42.42 -8.05,-75.58l-192.89 0.86 -66.4 -203.14c-50.28,20.94 -75.5,71.69 -94.91,134.12 -14.22,46.04 -50.05,135.69 -56.3,168.02zm-1746.6 -1101.65c30.09,-12.25 203.97,-15.36 253.82,-15.87 41.96,-0.39 44.59,-6.6 80.7,-8.48l340.25 -16.11c2.44,-29.39 23.1,-100.3 32.37,-126.74l-695.59 37.72 -11.55 129.48zm-5547.73 -850.49c27.81,-5.9 27.97,-10.49 53.66,-20.94 23.02,-9.31 36.54,-13.24 58.89,-22.04 106.54,-42.04 287.1,-62.47 407.47,-62.35 137.62,0.12 289.26,17.56 413.13,48.6 38.97,9.78 90.4,29.15 129.56,32.41 -0.74,-31.67 -6.44,-55.16 -8.25,-97.08 -1.37,-34.53 -6.56,-61.28 -20.7,-89.25 -38.18,-22.59 -229.51,-31.51 -286.94,-32.26 -104.58,-1.29 -206.33,7.78 -305.57,28.48 -133.06,27.7 -396.62,132.67 -441.25,214.43zm-227.11 1036.82c14.92,25.78 23.96,35.4 50.52,46.4 41.21,4.32 58.45,11.59 92.28,23.26 19.49,6.68 23.26,7.38 40.19,16.5 22.04,11.82 1.96,-0.71 19.92,12.61 1.88,1.37 7.42,6.09 9.03,7.38l8.65 7.94c88.11,6.13 206.68,-16.3 255.35,-65.53 -15.36,-49.77 -59.83,-83.87 -108.11,-106.93 -95.19,-45.46 -141.27,-18.08 -172.98,-51.94 8.8,-13.99 50.84,-259.91 62.31,-302.77 -83.56,0 -153.02,0.23 -199.89,128.22 -22.19,60.7 -48.83,212.58 -57.27,284.86zm4901.6 -2033.15c137.26,-30.41 300.26,-17.68 422.12,-24.28 36.03,-1.96 38.86,-7.93 80.66,-8.48 119.11,-1.42 229.74,-1.93 349.91,-14.54 31.08,-3.26 59.84,-3.85 82.15,-6.95 34.06,-4.64 56.69,-7.86 86.94,-10.3 102.06,-8.24 131.21,-28.4 172.82,-94.48 25.96,-41.29 12.29,-23.37 53.7,-40.74 -94.01,0.16 -205.82,20.28 -308.16,24.71 -125.83,5.47 -874.1,12.38 -928,73.82 -14.46,19.61 -12.58,70.99 -12.14,101.24zm-7911.79 1328.41c354.28,0 806.18,-32.37 1165.25,-32.37 0,-69.34 -28.36,-97.86 -64.78,-129.65 -133.65,2.75 -1027.52,11.95 -1073.44,43.45 -20.04,22.16 -24.05,83.01 -27.03,118.57zm5806.66 -141.74c89.06,1.25 165.28,-22.48 195.8,-83.92 17.33,-34.81 1.18,-218.03 3.07,-276.49 5.77,-176.75 35,-352.32 37.55,-526.55 -65.45,1.38 -129.33,24.32 -195.92,24.32l-42.78 637.69c-11.23,82.06 2.28,136.63 2.28,224.95zm-6399.13 -561.12c203.15,-22.55 192.3,-55.04 209.51,-189.83 16.03,-126.15 20.43,-263.33 4.2,-391.05 -79.24,-27.58 -676.46,59.08 -838.16,53.62 19.17,-40.42 66.47,-70.79 94.13,-102.18 37.44,-42.51 160.72,-163.03 165.32,-232.61 1.96,-29.93 -59.84,-101.67 -80.5,-118.05 -55.08,-4.95 -202.48,22.39 -275.43,22.39l100.65 142.41c53.94,71.7 71.22,70.17 20.62,157.14 -78.02,134.01 -213.79,219.61 -226.56,267.5 156.71,0 284.47,-9.35 424.72,-28.84 174.03,-24.16 250.6,-27.85 417.72,-27.85 0,119.27 17.41,185.86 -2.24,338.05 -3.26,25.58 -13.39,79.44 -13.98,109.3zm6120.79 1107.85c59.17,0 221.53,-4.83 236.23,74.57 1.53,8.56 1.8,13.32 2.2,22.08 0.59,14.42 -0.51,34.1 -0.55,49.14l-16.46 680.24c0.43,99.19 -8.1,135.92 -8.18,186.25 -0.07,70.67 -14.96,364.41 -6.32,387.51 8.92,23.81 127.52,42.08 160.52,42.08 29.58,-127.25 -49.26,-226.25 16.19,-324.07 18.03,4.79 9.9,0.98 25.41,8.13 14.15,-147.55 51.9,-1123.69 25.58,-1207.84 -63.45,-81.24 -281.48,-50.16 -397.14,-45.17l-37.48 127.08zm5589.73 178.24c65.57,177.65 117.19,328.47 191.95,506.95l263.92 645.46 24.32 -0.71c0,-129.76 29.98,-152.03 64.78,-204.01 39.76,26.64 77.87,60.86 118.13,92.52l116.84 100.89 24.24 0.82c0,-74.56 6.4,-155.18 48.6,-186.06 12.21,52.41 52.64,88.83 93.69,116.8 55.36,37.75 91.7,33.71 149.33,57.99l104.1 -4.76c-5.3,-32.72 -34.02,-78.29 -50.12,-110.66 -10.38,-21.1 -16.58,-34.26 -28.17,-52.8 -14.22,-22.87 -23.1,-30.84 -25.81,-63.33l-9.12 -8.14 -38.85 -70.28c-44.04,44.91 -44.94,116.8 -48.05,190.46 -51.7,-24.99 -198.23,-170.23 -252.29,-196.04 -70.32,43.49 -57.08,124.07 -69.38,178.32l-11.63 29.39 -179.73 -430.57c-114.4,-270.13 -251.82,-605.48 -335.77,-886.68 -34.81,-116.29 -140.53,-82.15 -153.65,-3.7 -4.64,27.86 -1.96,275.16 2.67,298.14zm-11560.61 1028.7l-300.18 -23.92c-2.87,-202.48 66.98,-514.57 95.11,-719.84 33.59,-245.49 65.29,-484.7 61.76,-740.69 -28.99,-28.52 -75.94,-62.07 -114.24,-92.67 -87.06,-69.5 -275.44,-205.27 -294.69,-334.48l198.99 -217.69c-17.76,-27.38 -53.83,-39.2 -88.24,-49.46l-275.71 15.76c-41.33,1.14 -44.35,8.33 -88.82,8.33l0 16.26c60.03,13.95 181.66,113.38 251.07,129.6 -20.19,38.27 -59.63,71.39 -99.55,119.12 -34.84,41.6 -73.3,71.54 -102.93,115.77 32.18,138.09 199.58,252.34 294.18,329.49 21.8,17.84 36.34,28.72 58.81,46.52 29.34,23.21 25.61,26.87 60.1,45.18 0,281.83 -31.94,500.97 -65.25,744.73 -11.2,82.03 -96.72,637.49 -96.72,721.41 53.07,0 80.3,6.09 121.51,8.05l364.49 24.36c3.5,-42 27.35,-105.37 20.31,-145.83zm5584.94 -97.23l7.58 -8.06c17.84,-79.08 13.55,-116.24 -25.89,-176 -65.13,2.2 -119.35,42.04 -181.69,58.66 6.95,-528.12 47.06,-1114.26 79.04,-1648.35 10.29,-172.03 30.37,-364.18 31.07,-534.72 -49.61,-35.55 -20.11,-80.06 -55.82,-137.77 -26.24,-42.43 -60.15,-64.75 -129.61,-64.75 0,120.06 -16.26,223.77 -16.02,340.45l-21.1 343.32c-4.75,31.31 -2.87,53.86 -3.1,86 -0.48,48.83 -15.56,164.64 -16.23,259.2 -0.31,42.04 -6.56,44.51 -8.45,80.74l-24.47 429.07c0.35,143.12 -24.83,385.28 -24,526.75 0.35,67.1 -8.45,101.32 -8.21,170.03l-7.67 267.92c11.16,59.13 70.95,-38.5 185.87,-41.09 36.53,54.41 41.17,97.71 23.84,177.77 -30.88,143.12 -26.32,67.45 -15.71,194.86 52.95,0 78.61,8.13 137.69,8.13 6.56,-79.2 16.98,-11 16.19,-186.33 -0.35,-73.23 -0.67,-130.47 56.69,-145.83zm-3783.92 -1741.5c2.12,11.87 5.14,19.25 3.97,31.98 -2.91,30.13 13,12.14 -10.89,24.83l-16.34 283.17c0.31,83.95 8.25,228.68 -3.26,304.62l-12.96 286.71c-2.64,108.19 -24.09,226.99 -24.09,283.72 49.58,0 91.54,11.2 128.59,25.26 49.97,19.05 60.46,29.23 96.32,65.65 174.71,177.25 57.56,637.25 139.55,808.18 33.74,-7.85 78.29,-10.57 113.93,-15.71 47.49,-6.88 72.71,-8.53 129.05,-8.53 0,-35.59 -7.47,-95.11 8.17,-116.91l-53.86 -0.35c-43.02,-203.35 -13.91,-387.36 -43.53,-587.44 -46.83,-316.69 -254.22,-283.37 -318.37,-315.98 18.66,-189.79 37.83,-345.08 40.78,-543.2 6.24,-418.04 -6.41,-892.26 212.69,-1255.26 17.92,-29.66 38.7,-59.71 58.62,-87.17 20.23,-27.98 57.12,-62.63 67.88,-90.79 -73.82,-70.44 -0.31,-256.42 -76.53,-318.85 -85.8,-70.36 11.24,282.86 -142.25,477.44 -99.04,125.6 -131.02,169.72 -195.68,322.74 -40.98,97.19 -92.87,317.27 -101.79,425.89zm2018.14 2267.14c40.7,-2.59 105.37,-4.95 136.36,-23.41 2.48,-38.54 -2.08,-84.7 2.09,-120.77 1.49,-13.2 6.52,-30.96 12.29,-44.23 13.12,-30.14 8.41,-24.71 30.84,-37.48 -10.37,-172.27 45.97,-450.88 -22.47,-579.23 -284.7,-31.43 -497.36,-69.58 -704.98,-203.3 -187.9,-120.85 -321.75,-254.22 -374.71,-542.58 -78.84,-429.08 51.98,-899.33 324.74,-1222.92 71.54,-84.86 73.85,-68.05 118.17,-116.92 -58.85,15.48 -242.16,164.73 -285.88,208.45 -64.94,64.98 -166.57,217.33 -205.78,296.41 -106.39,214.46 -176.98,450.14 -181.31,693.67 -0.94,53.98 7.47,77.55 8.57,121.75 11.47,449.11 273.82,690.64 673.16,825.35 113.93,38.42 278.81,73.82 428.41,73.82 6.01,25.93 13.55,34.73 21.02,68 34.57,153.06 -27.82,383.12 0.82,525.72 6.88,34.18 16.03,47.85 18.66,77.67zm6577.34 -3205.75l137.46 -13.16c26.4,13.31 11.47,-17.33 17.4,28.36 44.08,-10.92 58.38,-10.1 96.21,8.09 -1.06,49.23 -10.33,31.79 -32.37,64.75l25.69 31.23c50.84,1.26 36.74,-5.66 75.43,-19.92 106.07,-39.13 86.9,100.42 73.62,187.83 -9.15,60.42 -2.55,126.22 -4.44,189.98 -2.08,70.79 -8.64,82.66 -8.17,194.35l-32.6 761.16c-7.08,130.74 -3.85,249.7 -7.82,380.99 -1.97,66.67 -8.88,78.34 -8.29,186.14l-16.46 380.48c0.35,73.97 -2.32,132.82 -7.47,194.97 -4.99,60.35 1.69,132.4 -0.11,194.27 -2.28,73.94 -10.89,73.82 -7.9,194.15 16.97,7.47 14.81,3.42 39.99,1.49 15.87,-26.55 33,-43.21 48.83,-74.17 14.23,-27.77 22.28,-55.23 33.24,-88.23 19.13,-57.24 33.04,-133.65 81.09,-163.16 18.81,-60.85 82.1,-2207.11 92.79,-2510.67 3.26,-92.28 37.59,-217.05 -96.53,-155.84 -41.13,18.74 -40.15,15.55 -71.26,-5.42 7.7,-50.64 34.65,-16.39 24.83,-80.74 -94.41,-38.65 -162.41,23.1 -251.12,33.16l-1.92 -245.1c-11.47,25.38 -5.78,78.22 -5.78,113.41 -218.5,50.92 -194.34,-99.31 -194.34,211.6zm-234.93 2836.94c-279.05,0.11 -558.29,-8.06 -834.12,-14.22 -214.46,-4.76 -628.14,-10.93 -826.88,-24.68l202.56 -2604.64 -194 8.09 -24.32 356.44c-1.76,35.75 -7.15,33.63 -8.17,72.8 -1.29,52.01 -4.32,91.22 -8.48,145.4 -6.92,90.35 -21.3,188.45 -23.77,284.07 -2.24,89.02 -23.18,193.29 -24.4,283.37 -1.29,89.73 -17.09,196.7 -23.76,284.07 -7.74,100.73 -8.96,188.81 -17.17,290.68 -6.92,87.02 -22.55,194.62 -23.77,283.92 -1.57,109.17 -42.47,446.4 -48.6,575.18 -8.48,177.96 -54.37,162.05 129.53,161.97 105.95,-0.04 188.69,8.45 299.75,8.06 61.52,-0.24 91.69,8.33 145.51,8.4 54.1,0.08 108.31,-0.23 162.45,-0.47 57.55,-0.19 83.91,8.65 145.63,8.33l761.44 8.09c144.18,0.4 120.96,14.74 24.28,-129.64 54.48,0 142.29,12.65 186.29,-5.22zm-3223.87 -2875.32l203.43 -37.44 3.33 26.24c85.88,0 222.44,-17.33 311.74,-32.37 35.86,-5.97 65.92,-16.23 105.2,-16.23 9.79,36.46 21.89,25.11 16.11,88.43 -3.34,35.99 -8.37,50.45 -7.9,97.94l-137.57 1806.48c-3.97,71.03 -12.69,131.02 -16.66,202.01 -1.77,32.37 -5.38,57.47 -8.49,96.87 -2.24,28.57 -4.91,68.72 -8.68,104.66 -15.44,146.26 -25.53,336.96 -45.06,489.54l-26.64 305.49c172.08,0 403.67,16.18 575.07,16.18 0.47,-18.89 11.12,-127.4 16.22,-139.23l-384.21 -11.78c-13,-56.77 57.12,-674.54 66.86,-788.39 22.83,-265.84 46.99,-533.03 69.3,-797.1l90.28 -1216.49c30.65,-508.71 74.65,-385.31 -272.21,-353.84 -96.17,8.76 -194.11,12.53 -291.42,16.34 -100.53,4.01 -200.51,7.78 -299.04,15.99 -97.04,8.13 -184.29,29.03 -275.55,37.83l-48.6 -142.88 -194.42 82.85c0,103.72 14.02,115.35 32.41,194.35 47.57,0 169.87,-27.66 251.35,-32.14l275.15 -13.31zm639.93 3577.12l206.01 20.78c74.8,10.49 138.52,14.46 214.62,20.39l770.32 47.69c50.08,0.08 62.77,8.56 112.9,8.64 159.62,0.24 297.83,7.82 461.96,7.82 250.57,0 444.36,5.07 688.52,-8.09 75.98,-4.13 158.09,6.21 230.22,-4.72l677.01 -27.61c194.62,-10.26 460.59,-40.51 648.06,-48.64l974.24 -78.77c34.65,-4.48 82.39,-8.52 111.34,-10.13 73.19,-4.05 142.29,-9.86 217.17,-17.72 279.36,-29.31 582.53,-49.23 868.49,-71.15 146.57,-11.19 298.18,-16.07 438.15,-31.66l444.29 -25.54 -332.09 -98.21c-148.85,-1.85 -297.66,14.97 -445.61,26.08 -2000.04,149.6 -3621.91,375.54 -5678.4,194.7 -150.58,-13.31 -757.47,-90.94 -855.88,-33.47 26.83,27.74 58.54,71.42 105.8,86.39 42.46,13.52 103.4,39.99 142.88,43.22zm-9032.89 251.11c-66.35,0 -104.42,11.04 -138.95,46.24 -25.38,25.81 -66.87,80.93 -70.44,123.87 1008.82,0 2018.77,16.18 3029.48,16.18 550.12,0 1295.01,34.69 1806.75,-7.66l291.22 -8.48c61.68,0.31 88.04,-8.61 145.56,-8.33l437.13 -16.42c92.08,-7.66 193.25,-14.38 292.4,-15.44l283.21 -16.5c60.58,0.67 85.06,-8.8 145.71,-8.21 62,0.59 91.54,-8.33 145.6,-8.29 196.7,0.15 391.05,-24.67 591.8,-23.85l286.66 -13c97.12,-14.62 203.94,7.89 301.01,-6.84 94.17,-14.22 204.52,-4.99 303.13,-4.63 61.52,0.23 91.77,-8.33 145.55,-8.41l761.64 0.31c185.98,0 417.53,16.23 599.38,16.23 -25.1,-21.88 -15.01,-12.49 -54.14,-18.74 -87.53,-13.95 -205.97,-47.93 -284.82,-79.67l-106.54 -50.92c-741.87,-5.06 -1472.47,11.4 -2214.77,48.21 -727.42,36.1 -1449.57,78.02 -2175.49,102.14 -374.59,12.41 -765.8,-0.63 -1142.07,-2.83l-2259.99 -13.55c-373.61,-2.08 -754.37,3.53 -1127.27,-7.03l8.25 -34.38zm6201.76 -3526.21l188.77 47.07 21.73 75.19 -97.75 -1.77c-27.65,-33.35 -108.66,-67.65 -112.75,-120.49z"/>
   <path class="fil1" d="M10744.89 7075.97c-6.45,19.91 -16.78,41.2 -22.64,64.05 -5.39,21.02 -7.92,54.44 -15.18,71.96 -13.02,19.41 -176.72,83.83 -194.91,89.52 -18.38,15.42 -21.55,26.25 -24.3,56.16l48.61 142.93c91.24,-8.84 178.5,-29.77 275.54,-37.87 98.52,-8.23 198.54,-12.02 299.03,-15.98 97.33,-3.85 195.26,-7.61 291.43,-16.33 346.87,-31.51 302.9,-154.9 272.24,353.79l-90.27 1216.51c-22.32,264.08 -46.49,531.22 -69.33,797.12 -9.77,113.8 -79.85,731.59 -66.79,788.38l384.17 11.8 186.3 1.65 124.91 -1568.12c17.19,-114.69 28.21,-438.28 47.42,-584.4l77.9 -982.36c-0.46,-30.24 -2.32,-81.64 12.11,-101.24 53.97,-61.43 802.19,-68.34 928.06,-73.8 102.31,-4.43 214.18,-24.53 308.12,-24.71 136.02,-17.9 162.62,-104.75 199.46,-216.4 11.36,-34.43 28.66,-73.13 35.44,-102.26l48.33 9.33c0.41,-71.95 -6.44,-138.4 129.98,-139.38 78.23,-0.56 69.38,28.62 73.48,-47.48 3.78,-70.36 6.87,-46.89 -8.78,-114.07 -29.97,2.49 -62.79,11.75 -95.17,18.23 -27.41,5.48 -60.78,12.09 -94.49,18.9 -341.2,68.97 -867.15,132.16 -1219.75,149.19l-324.45 23.86c-78.47,6.49 -200.78,1.52 -324.75,15.44 -33.02,3.7 -78.14,1.14 -112.42,0.99 -49.63,-0.2 -62.64,7.31 -104.84,8.55l-656.32 40.3c-147.9,6.35 -273.2,33.27 -318.14,145.74zm107.47 513.46c-42.42,16.47 -168.44,28.79 -225.58,38.57 -55.74,9.53 -187.2,19.71 -228.03,39.29l1.56 97.2c-2.58,174.22 -31.8,349.81 -37.56,526.51 -1.9,58.51 14.27,241.74 -3.03,276.53 -30.58,61.44 -106.83,85.19 -195.86,83.92 -50.54,-9.79 -145.5,8.08 -194.4,12.16 -89.9,-169.89 -32.33,-207.57 -61.34,-408.48l-28.72 -206.18c-8.7,-65.74 -68.03,-96.1 -127.54,-115.47 -293.17,-95.37 -98.45,-141.83 -234.48,-243.44 -12.01,-8.97 -62.38,-36.34 -78.89,-27.03 -18.63,10.53 -11.61,17.01 -12.3,44.12l-16.44 292.27c-0.75,170.59 -20.83,362.69 -31.12,534.77 -31.97,534.04 -72.12,1120.23 -79.02,1648.37 62.3,-16.65 116.57,-56.48 181.72,-58.72 39.43,59.76 43.66,96.96 25.83,176.02l-7.52 8.1c-0.8,36.12 -11.87,51.86 -15.29,81.91 -3.16,27.71 -0.91,67.3 -0.91,96.29 27.23,13.07 99.15,23.44 137.7,24.3 13.75,-59.01 25.69,-92.86 17.64,-162.93 -7.23,-63.05 6.66,-135.02 37.32,-162.83 76.68,-69.5 162.74,-9.93 177.14,-114.46 34.68,-251.98 -4.19,-504.23 11.33,-693.37l20.96 -178.63 37.47 -127.09c115.66,-5.01 333.71,-36.06 397.14,45.18 26.36,84.15 -11.43,1060.27 -25.53,1207.83 -1.39,25.26 -0.63,48.15 -0.87,73.23 -0.38,40.07 -5.84,42 -8.38,72.57 39.22,18.82 120.86,29.04 170.1,40.5l3.37 -32.4c-0.04,-104.94 -56.65,-228.16 12.84,-299.82 40.98,13.07 226.58,122.48 246.76,154.03 32.94,9.87 138.28,86.88 182.54,97.19l58.91 -880.7c16.29,-120.29 31.49,-489.4 38.26,-617.87 7.77,-147.57 25.27,-295.97 24.22,-445.57 -0.92,-134.13 25.15,-409.55 24.6,-542.42 -0.2,-47 5.55,-344.85 12.16,-364.7l-3.36 -26.23 -203.4 37.48zm3658.93 -286.65l1.97 245.09c88.62,-10.1 156.67,-71.82 251.03,-33.16 9.84,64.32 -17.15,30.09 -24.82,80.76 31.14,20.97 30.12,24.14 71.29,5.37 134.12,-61.18 99.8,63.61 96.55,155.87 -10.72,303.59 -74.01,2449.9 -92.86,2510.73l-1.19 210.6c35.39,-23.65 46.1,-31.3 75.61,-64.8 6.28,-32.33 42.06,-121.96 56.29,-167.96 19.35,-62.5 44.59,-113.21 94.92,-134.17l66.4 203.18 192.86 -0.91c27.92,3.56 89.67,-7.11 113.79,-13.16 46.31,-11.6 65.44,-32.5 96.82,-40.89 -6.51,-78.13 -32.67,-220.95 -32.68,-307.52 -0.02,-116.72 -30.42,-512.82 -2.03,-575.38 -4.6,-22.99 -7.31,-270.29 -2.64,-298.11 13.14,-78.47 118.87,-112.6 153.62,3.71 84,281.19 221.39,616.45 335.8,886.68l179.74 430.52 11.57 -29.36c12.4,-54.27 -0.86,-134.82 69.43,-178.32 54.03,25.76 200.64,171.02 252.26,196 3.13,-73.65 4.03,-145.53 48.08,-190.44l38.85 70.33 9.11 8.1c49.6,33.22 50.21,52.09 138.55,80.17 56.92,18.08 117.63,27.42 177.36,41.34 -2.23,-26.77 -170.67,-357.8 -197.16,-410.35l-127.99 -277.04c-17.68,-43.52 -42.28,-96.23 -63.66,-138.83 -78.05,-155.62 -150.51,-312.69 -237.9,-466.82 -17.03,-30.04 -25.67,-34.91 -21.61,-83.51 13.26,-158.52 259.08,-281.29 348.82,-461.98 24.31,-48.96 30.31,-102.25 38.95,-163.56 52.82,-374.74 2.12,-571.43 -271.64,-803 -154.85,-130.99 -250.72,-190.23 -444.43,-268.38 -178.38,-71.95 -299.46,-92.99 -485.82,-121.7 -70.89,-10.92 -122.44,4.41 -182.56,11.13 -227.99,25.48 -446.6,79.34 -680.06,81.17 -31.59,0.26 -28.16,-3.45 -50.62,8.6zm-7255.15 639.91c-44.28,48.85 -46.67,32.07 -118.19,116.94 -272.68,323.58 -403.57,793.86 -324.72,1222.92 52.99,288.34 186.81,421.66 374.7,542.6 207.67,133.69 420.28,171.84 704.98,203.26 68.44,128.36 12.09,406.97 22.53,579.24 -5.96,63.17 46.36,142.61 69.48,186.3 -47.69,0 -69.93,15.27 -114.72,16.2 -30.99,18.49 -95.63,20.83 -136.39,23.46 -108.89,4.39 -134.49,15.56 -251.41,16.73 -43.71,0.44 -47.64,7.45 -88.53,8.67 -233.9,7.01 -483.97,-12.23 -713.03,-24.6 -439.76,-23.75 -955.78,-15.08 -1361.85,104.36 -353.47,103.97 -526.12,138.25 -897.43,212.29 -250.43,49.93 -719.58,98.84 -997.04,112.68 -36.05,1.8 -38.76,8.01 -80.67,8.43l-275.29 8.22c-112.1,9.28 -240.61,7.75 -364.93,7.67 -75.71,-0.04 -113.43,-5.85 -162.04,24.27 -43.32,26.85 -55.52,62.23 -82.18,105.33l-8.3 34.35c372.94,10.6 753.73,4.96 1127.34,7.01l2259.94 13.6c376.3,2.18 767.52,15.2 1142.11,2.75 725.9,-24.1 1448.09,-66.01 2175.43,-102.05 742.33,-36.79 1472.91,-53.3 2214.84,-48.21 90.47,14.98 233.82,-1.9 332.15,3.41 51.76,2.8 97.72,8.17 161.96,8.13 93.55,-0.03 129.25,14.51 145.8,-8.1 -157.06,0 -335.61,-94.76 -456.61,-134.68 -31.06,-10.25 -41.49,-9.65 -61.8,-27.33 -39.47,-3.2 -100.39,-29.72 -142.89,-43.22 -47.21,-15 -78.93,-58.67 -105.76,-86.36 98.41,-57.51 705.27,20.14 855.88,33.39 2056.49,180.84 3678.39,-45.06 5678.33,-194.67 148.03,-11.08 296.87,-27.96 445.66,-26.06l56.43 -7.29c109.88,0.71 336.18,-24.08 470.08,-24.08 -18.5,-25.26 -43.58,-18.61 -111.36,-34.44 -182.8,-42.7 -385.29,-120.83 -564.37,-188.95 -270.63,-102.94 -236.69,-100.62 -498.79,-100.62l-900.31 8.1 -104.11 4.73c-46.7,7.56 -97.87,3.53 -145.82,3.35 -61.23,-0.23 -92.2,8.39 -145.78,7.95l-24.3 -0.82c-104.54,5 -195.63,3.07 -299.7,10.6l-24.31 0.74c-43.66,-4.71 -97.47,6.06 -153.89,5.86 -65.77,-0.23 -105.76,8.31 -161.74,8.37 -26.69,0.03 -55.05,-1.34 -81.54,-0.54 -39.98,1.19 -40.49,7.44 -80.47,8.63 -26.65,0.8 -54.82,-0.91 -81.59,-0.59 -41.8,0.51 -44.61,6.54 -80.64,8.46 -217.91,11.63 -425.27,18.34 -639.95,33.87 -25.14,1.93 -23.02,6.02 -39.97,-1.5 -26.15,12.09 -710.41,45.69 -802.71,48.33l-493.57 32.93c-45.32,0.32 -64.82,2.88 -98.65,6.66 -69.9,7.79 -138.43,4.06 -208.99,9.71l-801.92 48.59c-52.32,4.29 -143.66,4.09 -198.25,12.36 -33.9,5.13 -66.63,3.42 -102.07,3.23 -49.68,-0.26 -62.62,7.32 -104.86,8.56l-299.92 15.97c-84.53,4.56 -210.6,-2.5 -311.27,12.74l-199.04 11.56c-33.35,1.8 -71.72,-0.36 -105.62,-0.32l-307.27 16.74c-280.65,8.4 -546.61,16.29 -834.58,15.94 -78.86,-0.1 -124.9,8.29 -202.49,8.11l-526.84 0.31c-45.97,-0.56 -56.03,-8.63 -104.7,-8.7 -70.25,-0.1 -140.6,0.28 -210.88,0.28 -184.48,0.02 -448.58,-24.3 -623.71,-24.3l7.51 -16.2 -7.45 -121.5c-0.11,-35.55 -5.22,-33.75 -7.26,-58.16 -2.54,-30.3 4.99,-37.21 7.28,-63.35 4.99,-66.08 42.35,-98.64 83.68,-126.84 35.97,-24.52 119.89,-77.09 121.08,13.44 19.51,43.18 -25.08,162.52 5.77,226.81 33.36,-8.91 51.39,-41.92 76.21,-77.69 149.88,-215.93 150.33,-493.23 181.49,-741.94 5.87,-46.85 17.7,-101.76 17.7,-144.29 56.96,-13.27 112.51,-55 145.46,-97.54 67.23,-86.8 233.62,15.19 296.54,-440.58l44 -288.09c-35.01,-0.79 -44.43,-8.33 -88.82,-8.39 -311.22,-0.4 -382.97,13.17 -679.94,41.52 -119.08,11.37 -250.31,33.24 -373.31,39.8 -166.61,8.88 -204.13,-23.43 -279.42,137.67 -11.46,42.87 -53.53,288.8 -62.26,302.8 31.65,33.89 77.75,6.5 172.97,51.97 48.3,23.05 92.74,57.12 108.13,106.93 -48.72,49.24 -167.24,71.63 -255.36,65.49 -67.19,-2.2 -80.91,-2.92 -133.1,-37.57l-37.01 -30.11c-26.57,-10.93 -35.59,-20.67 -50.55,-46.41 -14.39,-12.57 -68.1,-86.14 -79.13,-105.22 -62.39,-107.86 -21.65,-354.85 19.23,-475.03 48.64,-143 116,-244.1 200.65,-358.27l78.66 -90.77c0.9,-0.95 3.13,-3.08 3.86,-3.82 0.72,-0.74 2.64,-2.43 3.91,-3.71 44.63,-81.78 308.15,-186.68 441.27,-214.44 99.21,-20.7 200.92,-29.77 305.56,-28.45 57.46,0.73 248.71,9.62 286.95,32.29 46.28,16.73 156.81,24.78 223.31,56.71 0,-144.97 -14.27,-196.12 -64.8,-291.61l-121.5 -129.61 0 -16.2c170.28,0 254.79,16.2 413.11,16.2 -45,-85.03 40.55,-76.21 -184.29,-123.52l-484.88 -130.73c-239.27,-79.98 -559.14,-19.59 -770,78.71 -62.89,29.3 -147.3,68.9 -201.97,105.83 -35.98,24.32 -161.36,98.66 -181.16,126.41zm-1024.23 -283.51c-10.75,28.18 -47.66,62.83 -67.87,90.75 -19.91,27.52 -40.73,57.58 -58.61,87.2 -219.11,362.98 -206.44,837.26 -212.68,1255.27 -2.95,198.12 -22.15,353.44 -40.81,543.23 64.16,32.59 271.58,-0.73 318.4,315.95 29.58,200.07 0.51,384.07 43.54,587.47l53.81 0.34c32.61,-7.27 73.23,-10.26 105.2,-13.07 117.17,-10.31 90.31,53.56 89.18,-250.8 -0.3,-80.39 8.12,-139.98 8.12,-226.79 0,-78.38 -0.39,-156.82 -0.28,-235.18 0.07,-48.66 8.13,-58.74 8.71,-104.7l-0.28 -356.77c-8.43,-155.93 -13.21,-301.57 -8.42,-461.93 1.27,-42.22 8.77,-55.21 8.57,-104.85 -0.37,-87.84 0.82,-266.12 12.58,-343.81 20.09,-132.73 5.02,-774.57 -46.35,-886.44 -31.23,-68.03 -45.46,-17.21 -47.12,-187.78 -0.62,-63.68 -0.94,-152.95 -73.21,-169.79 0,94.68 -35.21,392.68 -92.48,461.7zm6385.85 162.01l-202.53 2604.67c198.74,13.75 612.41,19.9 826.84,24.66 275.85,6.12 555.07,14.31 834.15,14.23l97.2 -3.25 -105.3 -153.56c-181.18,42.21 -130.14,-150.55 -211.01,-234.5 -7.84,-8.13 -4.78,-6.11 -17.13,-15.27 -8.47,-6.27 -14.91,-9.91 -25.36,-15.14 -20.24,-10.13 -37.15,-16.49 -62.41,-18.59 -13.13,-157.84 45.87,-209.58 -24.45,-204.73l-169.95 2.22c-150.44,0 -281.52,8.1 -437.4,8.1 -6.06,-72.78 -37.36,-78.9 -23.76,-258.62l45.63 -259.79 11.52 -129.49 695.62 -37.69c30.05,7.45 113.89,-2.92 161.99,-2.92l72.92 -267.3c-166.31,0 -253.98,47.86 -275.42,-32.41 111.74,0 67.3,-10 64.8,-121.5 56.43,-27.08 138.81,-10.23 210.62,-16.2 0,-50.06 -12.32,-115.22 -16.21,-162.01l-369.18 35.84c-130.47,19.35 -276.72,-3.43 -400.34,-3.43l33.39 -233.94c4.58,-25.74 13.68,-46.82 13.44,-73.87l29.73 -109.75c160.1,-33.08 384.87,-46.7 555.26,-47.56 29.22,4.77 174.48,-3.24 194.4,-12.8 15.37,-32.02 0.44,-133.69 5.95,-144.27 11.11,-38.46 -21.01,-107.92 39.8,-140.38l100.05 1.15c112.38,0 90.15,8.09 194.4,-16.19l1.01 -153.91c-5.94,-45.69 9.01,-15.02 -17.38,-28.38l-137.53 13.12c-54.99,-1.32 -111.75,22.01 -199.35,-4.64 -55.06,-16.75 -131.79,-0.76 -196.94,4.31 -68.42,5.33 -135.27,13.51 -211.42,15.38l-211.58 15.23c-31.53,3.54 -71.87,0.86 -104.39,0.9 -48.68,0.05 -58.73,8.13 -104.71,8.7 -36.84,0.46 -77.42,-2.32 -113.77,-0.36 -173.47,9.36 -367.26,24.34 -542.66,24.34 0,45.53 -7.42,75.75 -8.54,129.6zm-9298.52 -710.93c20.7,16.34 82.49,88.11 80.52,118.09 -4.6,69.52 -127.95,190 -165.33,232.53 -27.63,31.45 -74.94,61.82 -94.12,102.18 161.69,5.45 758.91,-81.17 838.17,-53.57 16.19,127.68 11.85,264.86 -4.24,391 -17.19,134.8 -6.32,167.3 -209.5,189.87 -23.52,-1.63 -75.59,5.09 -113.6,6.02 -42.8,1.06 -61.13,8.76 -113.09,8.43 -47.13,-0.31 -201.42,3.85 -226.91,16.09 10.95,30.25 98.06,55.26 148.85,94.19 11.19,8.57 7.16,5.98 13.15,11.28 34.47,10.22 70.51,22.09 88.28,49.47l-198.98 217.67c19.21,129.2 207.63,265.01 294.65,334.49 38.31,30.6 85.27,64.17 114.24,92.68 3.61,256.01 -28.16,495.25 -61.75,740.66 -28.11,205.31 -97.92,517.38 -95.09,719.87l300.15 23.93c64.97,0 109.77,8.1 182.22,8.1l242.24 -1515.48c7.13,-35.88 15.9,-64.46 18.11,-104.55 2.95,-35.56 7,-96.4 27,-118.6 45.92,-31.45 939.82,-40.66 1073.47,-43.43 43.24,0.06 86.47,-0.11 129.71,0.14 54.22,0.3 74.32,-8.31 121.39,-8.13 23.93,-12.73 7.94,5.28 10.84,-24.79 1.23,-12.72 -1.81,-20.13 -3.96,-31.99 -17.1,-22.51 -26.75,-41.57 -51.65,-60.53 -74.93,-57.02 -189.39,-77.17 -287.34,-77.17 6.32,-75.8 32.99,-139.02 -64.81,-145.81 -36.93,-2.55 -75.2,4.13 -111.69,-1.7 -41.85,-6.68 -46.39,-19.91 -74.59,-38.8 0,-84.42 24.29,-53.12 24.29,-178.2 -117.3,0 -213.61,16.81 -323.95,16.25 -56.7,-0.29 -113.92,0.96 -170.48,0.27 -57.98,-0.7 -103.78,-16.52 -161.68,-16.52 11.85,-50.87 15.13,-116.5 24.26,-170.15 26.05,-153.24 36.44,-185.58 74.47,-330.53 17.98,-68.53 16.94,-54.9 129.3,-73.22 320.64,-52.24 933.36,-243.17 1275.34,-328.47 57.72,-14.39 103.61,-26.03 160.02,-42.49 53.58,-15.63 107.79,-32.09 159.79,-42.71l331.45 -73.55c-17.33,-23.67 -28.51,-22.01 -57.51,-31.59 -26.08,-8.6 -39.11,-16.28 -72.09,-17.02 19.6,-26.74 244.55,-64.59 295.43,-77.18 39.32,-9.73 18.07,5.39 36.68,-20.01 -36.48,-8.51 -68.12,-22.3 -104.25,-33.47 -31.75,-9.82 -71.68,-19.57 -109.75,-27.96 -164.28,-36.15 -436.26,-36.86 -485.78,-65.02 -52.66,-29.93 -67.97,-121.11 -107.92,-167.47 -55.16,-64 -99.42,-33.71 -207.98,-8.96 -78.78,17.97 -148.22,33.3 -223.74,51.67 -147.8,35.94 -296.36,66.07 -451.54,99.27 -72,15.41 -147.04,32.71 -226.74,48.66 -72.22,14.43 -153.04,27.08 -232.21,43.2 -301.2,61.34 -646.05,113.42 -950.96,150.66 -77.49,9.46 -164.04,22.33 -245.23,30.16 -43.08,4.16 -81.53,5.26 -126.59,11.12 -37.02,4.81 -94.11,5.14 -131.87,13.94 8.25,30.88 55.13,76.66 72.9,107.18z"/>
   <path class="fil2" d="M15483.96 7986.07l0 572.28c0,0 347.72,36.22 445.51,27.17 0,0 83.31,-126.77 41.66,-258.98 -41.66,-132.2 -86.93,-202.83 -86.93,-202.83 0,0 -213.7,-137.64 -400.24,-137.64z"/>
   <path class="fil0" d="M15484.89 7991.29c60.76,0 182.46,33.16 232.37,51.89 46.87,17.58 152.41,60.59 179.04,104.47 76.06,125.31 117.49,311.97 26.75,433.68 100.73,-5.14 204.92,-110.21 235.77,-183.97 50.67,-121.16 6.43,-241.42 -40.25,-342.35 -32.66,-70.64 -34.75,-69.79 -105.1,-105.46 -47.53,-24.1 -96.04,-44.82 -150.56,-60.77 -120.54,-35.26 -244.72,-46.95 -377.14,-51.86l-0.88 154.37z"/>
   <path class="fil0" d="M8578.54 9591.53l143.12 -4.88c0,0 -73.12,96.91 -161.63,113.77l18.51 -108.89z"/>
   <g>
    <path class="fil3" d="M11315.01 5498.66c0.4,2.05 1.51,3.54 1.19,6.15l8.06 19.97c-11.27,8.22 -8.08,5.83 -23.09,13.4 -2.31,1.16 -5.4,2.5 -7.79,3.65 -71.85,34.46 -35.53,15.07 -94.75,74.81 -40.62,40.98 -67.28,62.35 -109.57,95.35 -33.79,26.36 -92.39,68.12 -124.66,84.51 -43.66,22.18 -94.83,29.21 -139.93,43.2 -12.63,68.69 10.42,133.76 31.81,178.98l59.79 120.98c19.42,39.08 -4.99,7.79 25.91,39.25l-67.4 30.73c1.05,-122.98 -85.49,-160.75 -91.24,-249.05 -2.16,-33.12 3.56,-63.74 -0.39,-97.51 -92.17,-14.24 -65.77,94.64 -172.7,128.43 -68.98,21.8 -171.92,8.47 -229.2,31.18l-59 120.91c118.35,89.4 73.38,104.89 177.95,132.71l-19.79 7.39c-2.54,0.89 -14.55,5.05 -17.75,6.16 -48.45,16.89 -55.71,26 -112.92,19.64 10.76,-123.35 -126.34,-51.49 -20.25,-320.41l-284.29 -47.42c23.12,-35.8 28.3,-40.94 48.79,-80.13 37.34,-71.4 19.92,-64.82 22.77,-81.87 1.07,-6.45 0.1,-8.54 -2.05,-11.96 16.24,-98.48 62.84,-181.21 124.16,-239.46 82.4,-78.27 104.56,-67.78 218.08,-95.86 73.63,-18.22 163,-60.4 235.15,-68.2 130.74,-14.14 222.75,74.06 310.54,76.98l115.03 -349.58c13.08,-48.4 26.41,-77.36 6.32,-116.62 -119.49,237.4 -315.43,281.52 -557.48,330.13 -129.72,26.07 -187.81,69.68 -348.52,48.05 -163.35,-22 -261.63,-80.36 -397.58,-18.58 -0.94,-36.37 12.37,-44.28 39.06,-74.43 48.4,-54.69 157.18,-159.57 170.73,-208.6 53.33,-192.96 -154.54,-268.31 -161.85,-274.69 23.24,-23.93 34.04,-2.51 18.61,-27.91 53.46,-111.11 248.03,-247.73 261.47,-348.94 9.73,-73.26 -34.73,-155.83 -73.14,-189.02 -109.04,-94.24 -152.77,-17.07 -181.72,-74.7 15.88,-41.28 13.76,-19.04 43.54,-51.53l-64.31 -11.41 8.86 -45.12c98.05,-26.67 198.94,-179.71 165,-323.87 -15.39,-65.42 -52.87,-110.48 -105.74,-149.81 -100.38,-74.66 -115.56,-19.32 -124.86,-68.33l13.86 -4.85c13.63,-66.54 -2.4,-3.65 28.84,-25.31 9.21,32.28 0.69,20.42 41.89,11.32 12.59,-2.77 31.9,-8.82 48.38,-14.04 33.43,-10.6 53.14,-20.99 83.8,-45.15 51.79,-40.81 115.86,-99.1 192.06,-25.13 7.32,106.4 -32.36,174.92 22.82,267.42 20.58,-143.51 90.2,-316 210.84,-344.47 62.02,-14.63 161.94,15.28 228.62,42.24 134.64,54.44 205.81,148.73 250.34,283.36 19.18,57.98 17.01,124.58 38.38,188.39 39.44,117.79 99.14,41.57 171.64,330.87 98.62,393.55 -9.24,435.51 22.08,638.21 10.76,69.63 22.36,127.75 18.02,200.42 -7.9,132.34 -70.26,348.35 -131.13,462.57 -56.69,106.36 -227.2,173.59 -221.76,322.94 161.55,50.01 315.09,-241.14 480.47,-276.34z"/>
    <path class="fil4" d="M9640.8 5366.68l39.47 18.99c-96.71,201.11 -161.36,343.02 -52.39,518.36 47.72,76.77 74.41,108.54 169.21,165.34 93.97,56.31 165.44,77.04 269.63,114.27 -112.69,95.93 -399.67,110.26 -587.2,74.93 -35.5,-6.69 -78.82,-16.54 -113.68,-26.21 -79.19,-21.98 -75.22,-32.98 -108.58,-16.13l-103.07 -49.13c99.18,94.46 295.71,254.96 440.58,295.08 131.92,36.53 91.1,16.66 153.44,24.46 91.16,11.42 29.57,-0.5 50.64,27.72 -100.89,25.37 -167.55,81.94 -326.27,57.43 -157.59,-24.35 -214.62,-90.02 -324.9,-162.97 44.09,138.66 121.11,160.92 282.36,244.25 -86.64,65.25 -367.42,91.33 -508.24,42.08 -182.25,-63.74 -281.13,-210.91 -380.04,-316.35 87.66,236.54 254.95,292.71 258.68,388.49 -117.64,109.08 -468.39,-183.57 -499.43,-251.62 4.81,52.41 73.79,170.01 119.64,214.14 82.62,79.55 170.05,86.98 192.9,200.7 -164.28,-2.42 -296.19,-119.45 -401.91,-213.63 -188.74,-168.14 -127.84,-125.1 -341.85,-267.44 -83.1,-55.28 -194.05,-178.05 -227.3,-271.53 -48.76,-137.08 -105.78,-325.26 -65.18,-500.86l57.51 108.48 5.07 -269.96c51.16,87.13 41.96,254.12 195.51,457.35 90.46,119.73 246.57,262.85 411.57,340.16l-20.64 -27.25c-1.65,-1.89 -19.61,-20.21 -23.05,-23.39l-152.83 -148.97c-120.37,-144.58 -184.68,-206.26 -263.9,-387.67 -45.17,-103.44 -75,-249.35 -53.67,-371.27l0.32 -7.79c43.28,56.48 26.51,114.26 74.15,153.71 -11.04,-53.88 -19.9,-148.12 16.7,-189.09 22.07,49.09 21.73,124.22 105.67,211.65 54.28,56.54 117.39,118.47 199.31,158.39l-30.12 -65.09c-10.1,-17.25 -15.36,-29.29 -22.36,-50.34 -13.15,-39.56 -20.74,-74.72 -16.41,-122.61 26.91,31.95 56.8,89.04 85.81,136.65 19.89,32.64 63.51,92.23 91.57,129.95 163.07,219.23 516.3,608.76 810.39,620.38l-38.84 -30.02c20.78,-10.97 26.75,7.71 -37.53,-57.13 -24.75,-24.96 -41.28,-36.8 -65.11,-63.65 -47.9,-53.96 -71.28,-81.87 -105.53,-130.12 -90.14,-126.98 -86.29,-187.19 -73.97,-296.41 2.12,-18.83 1.36,-13.79 1.24,-29.62l-2.85 -18.05c-45.32,-70.99 -110.81,-39.18 -171.39,-203.22 45.27,21.23 172.1,127.74 267.65,87.34 -66.07,-55.68 -98.04,-175.31 -74.53,-286.08 2.03,29.13 68.64,121.72 94.88,152.7 174.39,205.96 372.58,228.08 604.6,272.5 -37.4,-15.33 -43.77,-12.44 -63.12,-39.82 13.79,-15.09 39.47,17.19 -31.47,-34.98 -102.42,-75.32 -236.64,-188.45 -229.2,-332.94 83.49,31.29 170.33,38.55 241.37,8.11 -25.73,-54.42 -91.77,-87.95 -52.25,-191.85 81.84,58.33 122.75,237.77 282.39,243.34 56.66,1.98 29.25,3.5 46.55,-13.76z"/>
    <path class="fil5" d="M8863.69 4492.26l-127.96 -111.14c-47.24,-43.03 -82.55,-83.35 -130.73,-122.2 -4.87,98.96 37.05,192.14 27.82,270.35l-125.47 -6.28 -39.2 178.65c-0.9,-27.15 -0.89,170.58 -0.01,196.94 -18.73,7.62 -62.89,-14.28 -70.66,93.6 -3.34,46.38 5.54,92.08 -6.74,141l-83.39 -37.96c-8.89,55.3 8.36,85.91 -16.2,116.61 -43.05,11.54 -96.55,-45.95 -181.73,-56.15 5.34,51.75 43.57,71.94 102.39,87.29 139.61,36.46 92.69,53.67 162.63,63.61 26.07,-55.73 -0.9,-66.8 17.92,-125.35 38.77,11.14 38.82,22.99 78.41,38.96 23.67,-66.1 -7.97,-154.73 24.98,-206.83 25.47,-40.29 13.79,-21.71 58.17,-22.98 8.64,-109.41 -24.89,-187.77 39.91,-386.17l124.01 7.67 -21.44 -153.05 150.15 46.48c-28.17,221.39 48.12,412.71 148.55,525.49 -105.45,-46.26 -179.67,-140.82 -267.37,-200.39 -14.04,192.66 113.65,469.28 250.09,628.99 21.71,25.42 42.54,46.19 61.26,72.06 -115.88,-39.52 -189.01,-177.32 -231.39,-238.47l-115.6 -150.87c-17.79,148.84 -21.44,215.53 -13,349.76 -99.31,-40.65 -130.24,-92.69 -208.18,-148.48 -1.98,50.01 4.12,99.11 12.71,148 12.75,72.54 14.17,56.89 49.71,115.39 -114.73,-27 -183.97,-155.84 -277.06,-217.12 -3.28,69.56 37.66,250.65 54.55,307.49 -56.14,-33.34 -110.87,-115.1 -143.24,-157.43 -24.62,-32.2 -37.73,-59.78 -62.71,-91.52 -20.91,-26.55 -39.81,-62.75 -61.61,-82.18 -55.94,117.56 -12.61,151.31 13.11,230.23 -102.79,-51.94 -214.61,-225.98 -194.49,-346.57 19.47,-7.74 80.08,-66.13 99.53,-83.07 39.96,-34.81 72.42,-53.94 114.79,-85.59 217.44,-162.4 49.43,-364.03 150.88,-633.07 110.76,-293.73 26.05,-242.5 56.84,-342.24 56.39,-14.41 77.64,12.07 132.47,7.08 30.41,-112.67 -128.06,-34.34 60.74,-288.69 227.55,-306.57 137.17,-386.06 414.43,-452.21 156.25,-37.28 159.34,-47.77 336.77,-27.4 9.32,28.28 -16.35,-0.59 10.63,25.49 -121.63,1.58 -251.16,18.06 -298.77,115.36 -66.26,135.42 -8.74,250.93 33.23,325.81 -84.66,-33.91 -99.59,-125.96 -123.19,-204.8 -12.53,-41.85 -9.4,-47.74 -43.48,-64.16 -68.68,137.13 7.01,342.5 56.62,423.58 49.54,80.96 76.4,80.23 175.15,126.87 76.05,35.94 112.29,78.38 128.44,138.18 -63.87,-38.12 -115.41,-49.48 -193.33,-68.3 9.11,39.85 24.08,49.35 50.9,85.43l169.71 212.21c-90.49,154.81 -99.07,81.96 -72.56,271.48 -104.75,-43.78 -177.17,-172.62 -257.99,-239.39z"/>
    <path class="fil3" d="M9569.8 3540.46c-34.32,40.74 -59.61,70.58 -117.41,83.77 -53.84,12.28 -82.79,16.7 -124.34,66.62 -47.09,33.35 -37.42,11.86 -133.66,88.48l-56.95 33.17c114.46,99.64 215.63,241.19 478.21,231.87 73.13,-2.59 109.87,-23.79 171.8,-31.37 -7.36,152.94 -50.29,217.82 -160.76,268.58 -164.39,75.54 -196.32,8.87 -361.61,-2.37 68.4,56.14 120.54,79.36 170.05,138.34 -9.11,47.95 -28.71,141.32 -67.58,158.18 -52.5,19.49 -90.05,-33.77 -168.93,3.91 -63.84,134.61 10.82,203.73 51.97,282 -157.66,-37.58 -259.07,-158.76 -342.42,-238.93 -12.91,135.26 92.01,354.03 177.76,451.87 29.82,34.02 93.35,81.97 118.31,120.11 -167.16,28.4 -306.65,-156 -397.72,-213.44 6.09,122.43 127.58,317.81 195.16,408.94 64.59,87.13 238.05,270.37 381.73,298.57 19.35,27.38 25.72,24.49 63.12,39.82 -232.02,-44.42 -430.21,-66.54 -604.6,-272.5 -26.24,-30.98 -92.85,-123.57 -94.88,-152.7 -23.51,110.77 8.46,230.4 74.53,286.08 -95.55,40.4 -222.38,-66.11 -267.65,-87.34 60.58,164.04 126.07,132.23 171.39,203.22 -84.08,-9.84 -142.47,-10.97 -227.72,-46.19 -68.65,-28.36 -111.63,-79.84 -163.27,-111.96 8.23,61.35 36.33,127.93 65.47,177.9 120.98,207.38 427.2,508.49 609.27,575.23l38.84 30.02c-294.09,-11.62 -647.32,-401.15 -810.39,-620.38 -28.06,-37.72 -71.68,-97.31 -91.57,-129.95 -29.01,-47.61 -58.9,-104.7 -85.81,-136.65 -4.33,47.89 3.26,83.05 16.41,122.61 7,21.05 12.26,33.09 22.36,50.34l30.12 65.09c-81.92,-39.92 -145.03,-101.85 -199.31,-158.39 -83.94,-87.43 -83.6,-162.56 -105.67,-211.65 -36.6,40.97 -27.74,135.21 -16.7,189.09 -47.64,-39.45 -30.87,-97.23 -74.15,-153.71 2.29,-2.11 6.55,-8.3 6.92,-6.27l121.76 -90.78c-20.12,120.59 91.7,294.63 194.49,346.57 -25.72,-78.92 -69.05,-112.67 -13.11,-230.23 21.8,19.43 40.7,55.63 61.61,82.18 24.98,31.74 38.09,59.32 62.71,91.52 32.37,42.33 87.1,124.09 143.24,157.43 -16.89,-56.84 -57.83,-237.93 -54.55,-307.49 93.09,61.28 162.33,190.12 277.06,217.12 -35.54,-58.5 -36.96,-42.85 -49.71,-115.39 -8.59,-48.89 -14.69,-97.99 -12.71,-148 77.94,55.79 108.87,107.83 208.18,148.48 -8.44,-134.23 -4.79,-200.92 13,-349.76l115.6 150.87c42.38,61.15 115.51,198.95 231.39,238.47 -18.72,-25.87 -39.55,-46.64 -61.26,-72.06 -136.44,-159.71 -264.13,-436.33 -250.09,-628.99 87.7,59.57 161.92,154.13 267.37,200.39 -100.43,-112.78 -176.72,-304.1 -148.55,-525.49 1.8,-31.38 -3.19,-9.64 17.14,-13.05 80.82,66.77 153.24,195.61 257.99,239.39 -26.51,-189.52 -17.93,-116.67 72.56,-271.48l-169.71 -212.21c-26.82,-36.08 -41.79,-45.58 -50.9,-85.43 77.92,18.82 129.46,30.18 193.33,68.3 -16.15,-59.8 -52.39,-102.24 -128.44,-138.18 -98.75,-46.64 -125.61,-45.91 -175.15,-126.87 -49.61,-81.08 -125.3,-286.45 -56.62,-423.58 34.08,16.42 30.95,22.31 43.48,64.16 23.6,78.84 38.53,170.89 123.19,204.8 -41.97,-74.88 -99.49,-190.39 -33.23,-325.81 47.61,-97.3 177.14,-113.78 298.77,-115.36 -26.98,-26.08 -1.31,2.79 -10.63,-25.49l32.51 11.93c7.12,65.23 82.39,62.84 146.13,97.78 80.12,43.91 44.37,70.31 162.83,86.25z"/>
    <path class="fil5" d="M9881.46 4028.22l-8.86 45.12 64.31 11.41c-29.78,32.49 -27.66,10.25 -43.54,51.53 -22.98,16.11 -5.71,-1.56 -24.62,27.05 -0.97,1.47 -16.35,32.24 -17.11,33.93 -66.23,145.76 -88.64,201.17 -244.65,207.57 -86.68,3.55 -61.52,4.71 -111.13,75.27 -71.18,101.23 -115.25,113.78 -82.11,264.58 13.77,62.67 70.28,211.41 146.84,161.07 13.81,-70.1 -24.07,-51.52 -26.32,-131.29 85.53,70.65 95.68,27.07 160.28,-18.01 52.03,-36.3 122.95,-25.26 192.21,-7.51 15.43,25.4 4.63,3.98 -18.61,27.91 -105.81,15.74 -201.55,156.87 -260.54,224.9 -39.24,45.25 -60.04,48.37 -95.63,76.48 -14.29,117.3 46.81,236.32 128.82,288.45 -17.3,17.26 10.11,15.74 -46.55,13.76 -159.64,-5.57 -200.55,-185.01 -282.39,-243.34 -39.52,103.9 26.52,137.43 52.25,191.85 -71.04,30.44 -157.88,23.18 -241.37,-8.11 -7.44,144.49 126.78,257.62 229.2,332.94 70.94,52.17 45.26,19.89 31.47,34.98 -143.68,-28.2 -317.14,-211.44 -381.73,-298.57 -67.58,-91.13 -189.07,-286.51 -195.16,-408.94 91.07,57.44 230.56,241.84 397.72,213.44 -24.96,-38.14 -88.49,-86.09 -118.31,-120.11 -85.75,-97.84 -190.67,-316.61 -177.76,-451.87 83.35,80.17 184.76,201.35 342.42,238.93 -41.15,-78.27 -115.81,-147.39 -51.97,-282 78.88,-37.68 116.43,15.58 168.93,-3.91 38.87,-16.86 58.47,-110.23 67.58,-158.18 -49.51,-58.98 -101.65,-82.2 -170.05,-138.34 165.29,11.24 197.22,77.91 361.61,2.37 110.47,-50.76 153.4,-115.64 160.76,-268.58 -61.93,7.58 -98.67,28.78 -171.8,31.37 -262.58,9.32 -363.75,-132.23 -478.21,-231.87l56.95 -33.17c96.24,-76.62 86.57,-55.13 133.66,-88.48 97.41,-13.63 239.29,-30.29 325.27,56.82 -115.85,-4.31 -290.33,-23.66 -395.86,95.43 7.26,8.12 -2.93,4.02 26.74,21.71 53.65,31.99 176.78,57.32 235.54,62.09 82.55,6.69 152.24,-7.44 220.25,-31.19 -1.81,-37.77 -16.57,-67.71 -21.37,-109.8 -16.4,-143.91 34.09,-285.2 -148.82,-245.45 -118.46,-15.94 -82.71,-42.34 -162.83,-86.25 -63.74,-34.94 -139.01,-32.55 -146.13,-97.78 76.06,13.75 211.99,56.63 289.74,81.31 46.9,14.88 85.61,32.04 127.4,51.74 66.44,31.33 57.41,34.55 107.06,7.13 -26.45,139.01 -24.2,172.59 26.96,280.99 21.62,45.78 40.72,69.55 50.03,116.5 9.58,48.31 10.74,91.47 19.43,134.12z"/>
    <path class="fil5" d="M10114.51 5767.71c-30.7,25.54 -5.94,25.52 -21.86,-6.5 -37.74,-75.89 12.08,-272.08 28.45,-342.4 -95.44,-19.19 -201.45,-38.75 -287.04,-16.32 -103.32,27.08 -117.78,57.9 -122.13,195.12 -6.32,199.22 120.86,285.61 333.07,344.06l284.29 47.42c-106.09,268.92 31.01,197.06 20.25,320.41 -122.22,70.82 -318.85,137.04 -507.32,126.08 -248.08,-14.44 -384.69,-139.95 -584.96,-219.35 33.36,-16.85 29.39,-5.85 108.58,16.13 34.86,9.67 78.18,19.52 113.68,26.21 187.53,35.33 474.51,21 587.2,-74.93 -104.19,-37.23 -175.66,-57.96 -269.63,-114.27 -94.8,-56.8 -121.49,-88.57 -169.21,-165.34 -108.97,-175.34 -44.32,-317.25 52.39,-518.36 51.27,-10.54 97.02,-32.26 139.94,-51.1 135.95,-61.78 234.23,-3.42 397.58,18.58 160.71,21.63 218.8,-21.98 348.52,-48.05 242.05,-48.61 437.99,-92.73 557.48,-330.13 20.09,39.26 6.76,68.22 -6.32,116.62l-115.03 349.58c-87.79,-2.92 -179.8,-91.12 -310.54,-76.98 -72.15,7.8 -161.52,49.98 -235.15,68.2 -113.52,28.08 -135.68,17.59 -218.08,95.86 -61.32,58.25 -107.92,140.98 -124.16,239.46z"/>
    <path class="fil5" d="M11315.01 5498.66c-165.38,35.2 -318.92,326.35 -480.47,276.34 -5.44,-149.35 165.07,-216.58 221.76,-322.94 60.87,-114.22 123.23,-330.23 131.13,-462.57 4.34,-72.67 -7.26,-130.79 -18.02,-200.42 -31.32,-202.7 76.54,-244.66 -22.08,-638.21 -72.5,-289.3 -132.2,-213.08 -171.64,-330.87 -21.37,-63.81 -19.2,-130.41 -38.38,-188.39 -44.53,-134.63 -115.7,-228.92 -250.34,-283.36 -66.68,-26.96 -166.6,-56.87 -228.62,-42.24 -120.64,28.47 -190.26,200.96 -210.84,344.47 -55.18,-92.5 -15.5,-161.02 -22.82,-267.42 -76.2,-73.97 -140.27,-15.68 -192.06,25.13 -30.66,24.16 -50.37,34.55 -83.8,45.15 -16.48,5.22 -35.79,11.27 -48.38,14.04 -41.2,9.1 -32.68,20.96 -41.89,-11.32 55.42,-14.57 246.99,-187.26 297.41,-228.69 182.68,-150.1 698.91,115.4 813.72,247.01 76.69,87.91 117.82,228.27 166.57,351.95 92.81,235.49 230.61,233.59 221.43,760.36 -2.84,162.69 22.72,560.81 -3.87,659.63 -25.33,94.16 -11.1,184.58 -38.81,252.35z"/>
    <path class="fil5" d="M8158.82 7301.63c-148.87,37.5 -140.23,191.27 -310.1,178.14 -75.01,-103 -57.89,-191.73 -294.32,-378.29 -349.34,-275.64 -356.08,-426.57 -449.27,-847.48 -35.94,-162.36 -76.54,-349.55 -142.15,-475.05 30.79,-15.52 29.91,-1.49 81.99,-43.95 43.67,8.48 24.74,6.61 56.88,30.21 31.81,-38.06 21.08,-57.45 61.91,-60.07 57.11,-3.65 -18.89,10.24 22.6,4.78l49.98 -95.46c12.53,39.7 -6.01,202.63 -5.02,281.22 5.5,435.39 214.52,803.09 535.63,1081.01 65.92,57.04 126.62,109.18 192.32,162.28 60.47,48.87 157.23,114.24 199.55,162.66z"/>
    <path class="fil5" d="M7430.01 5778.4c25.41,54.12 -12.88,203.81 27.33,388.07 31.86,146.03 66.87,226.35 131.44,327.72 100.86,158.35 262.92,289.14 449.24,348 115.8,36.58 134.69,16.31 223.96,19.34l287.38 164.04c-42.88,52.59 -108.47,38.57 -170.06,107.16 -44.87,49.98 -79.25,56.73 -169.92,117.76 -58.65,-41.73 -35.1,-78.31 -193.3,-162.13 -222.31,-117.79 -224.59,-153.64 -365.12,-337.22 -54.43,-71.12 -94.01,-133.97 -132.95,-206.57 -75.96,-141.64 -135.57,-268.9 -170.32,-460.6 -60.5,-333.75 34,-402.1 70.96,-568.21 14.81,22.23 5.75,-1.49 11.09,25.57l-5.52 103.17c-1.53,51.54 13.04,89.84 5.79,133.9z"/>
    <path class="fil6" d="M9886.76 4748.94c-69.26,-17.75 -140.18,-28.79 -192.21,7.51 -64.6,45.08 -74.75,88.66 -160.28,18.01 2.25,79.77 40.13,61.19 26.32,131.29 -76.56,50.34 -133.07,-98.4 -146.84,-161.07 -33.14,-150.8 10.93,-163.35 82.11,-264.58 49.61,-70.56 24.45,-71.72 111.13,-75.27 156.01,-6.4 178.42,-61.81 244.65,-207.57 0.76,-1.69 16.14,-32.46 17.11,-33.93 18.91,-28.61 1.64,-10.94 24.62,-27.05 28.95,57.63 72.68,-19.54 181.72,74.7 38.41,33.19 82.87,115.76 73.14,189.02 -13.44,101.21 -208.01,237.83 -261.47,348.94z"/>
    <path class="fil3" d="M8613.55 6930.51c-2.57,1.76 -5.06,2.12 -6.92,6.27 -1.86,4.13 -5.23,4.89 -6.68,6.48 -1.42,1.56 -4.62,4.73 -6.31,6.67 -8.69,9.99 -0.88,-0.1 -11.34,13.64 -1.59,2.08 -3.45,4.84 -4.91,6.92 -1.4,1.99 -3.18,4.84 -4.44,6.8 -22.12,34.26 -5.95,20.94 -23.59,48.28l-287.38 -164.04c-58.81,-69.54 -389.78,-197.6 -578.09,-460.3 -189.01,-263.68 -180.86,-405.19 -168.49,-690.41 -59.24,81.52 -55.68,77.3 -85.39,67.58 7.25,-44.06 -7.32,-82.36 -5.79,-133.9l5.52 -103.17c-5.34,-27.06 3.72,-3.34 -11.09,-25.57l18.44 -22.64c42.19,23.02 107.77,65.51 173.22,-0.38l60.13 -70.51c10.25,-11.35 19.14,-22.27 27.02,-31.54 2.88,-3.39 14.64,-17.06 16.59,-19.08 18.29,-18.84 3.71,-6.28 18.83,-17.08 -21.33,121.92 8.5,267.83 53.67,371.27 79.22,181.41 143.53,243.09 263.9,387.67l152.83 148.97c3.44,3.18 21.4,21.5 23.05,23.39l20.64 27.25c-165,-77.31 -321.11,-220.43 -411.57,-340.16 -153.55,-203.23 -144.35,-370.22 -195.51,-457.35l-5.07 269.96 -57.51 -108.48c-40.6,175.6 16.42,363.78 65.18,500.86 33.25,93.48 144.2,216.25 227.3,271.53 214.01,142.34 153.11,99.3 341.85,267.44 105.72,94.18 237.63,211.21 401.91,213.63z"/>
    <path class="fil5" d="M11121.49 4722.65c-93.53,35.78 -192.41,-28.43 -295.48,-52.64 -96.57,-22.7 -202.91,-25.34 -290.41,-11.25 -203.36,32.74 -308.41,110.7 -322.74,361.5 -46.43,-77.78 -41.14,-207.48 -9.39,-316.95l-215.49 28.89c104.92,-110.94 470.56,-166.34 626.62,-189.15 412.75,-60.3 306.2,-76.48 478.9,-441.8 18.03,82.9 25.92,208.01 36.83,297.75 15.09,124.1 -21.91,216.42 -8.84,323.65z"/>
    <path class="fil6" d="M9820.21 5334.57c-42.92,18.84 -88.67,40.56 -139.94,51.1l-39.47 -18.99c-82.01,-52.13 -143.11,-171.15 -128.82,-288.45 35.59,-28.11 56.39,-31.23 95.63,-76.48 58.99,-68.03 154.73,-209.16 260.54,-224.9 7.31,6.38 215.18,81.73 161.85,274.69 -13.55,49.03 -122.33,153.91 -170.73,208.6 -26.69,30.15 -40,38.06 -39.06,74.43z"/>
    <path class="fil5" d="M11025.08 3958.81c-89.59,-18.83 -165.77,-19.41 -255.17,-27.65 -99.4,-9.18 -171.19,-35.86 -243.35,6.82 -143.39,84.8 -186.86,233.21 -213.85,419.14 -64.06,-151.71 -42.9,-266.6 2.08,-453.76 -119.81,47.82 -191.58,66.85 -318.03,152.3 48.01,-120.69 324.86,-265.2 423.88,-297.79 280,-92.17 403.76,193.83 399.51,-272.83 110.13,85.22 45.24,299.95 165.52,420.54 29.44,29.51 26.94,21.59 39.41,53.23z"/>
    <path class="fil6" d="M10114.51 5767.71c2.15,3.42 3.12,5.51 2.05,11.96 -2.85,17.05 14.57,10.47 -22.77,81.87 -20.49,39.19 -25.67,44.33 -48.79,80.13 -212.21,-58.45 -339.39,-144.84 -333.07,-344.06 4.35,-137.22 18.81,-168.04 122.13,-195.12 85.59,-22.43 191.6,-2.87 287.04,16.32 -16.37,70.32 -66.19,266.51 -28.45,342.4 15.92,32.02 -8.84,32.04 21.86,6.5z"/>
    <path class="fil7" d="M8863.69 4492.26c-20.33,3.41 -15.34,-18.33 -17.14,13.05l-150.15 -46.48 21.44 153.05 -124.01 -7.67c-64.8,198.4 -31.27,276.76 -39.91,386.17 -44.38,1.27 -32.7,-17.31 -58.17,22.98 -32.95,52.1 -1.31,140.73 -24.98,206.83 -39.59,-15.97 -39.64,-27.82 -78.41,-38.96 -18.82,58.55 8.15,69.62 -17.92,125.35 -69.94,-9.94 -23.02,-27.15 -162.63,-63.61 -58.82,-15.35 -97.05,-35.54 -102.39,-87.29 85.18,10.2 138.68,67.69 181.73,56.15 24.56,-30.7 7.31,-61.31 16.2,-116.61l83.39 37.96c12.28,-48.92 3.4,-94.62 6.74,-141 7.77,-107.88 51.93,-85.98 70.66,-93.6 -0.71,-31.04 -8.82,-204.03 0.01,-196.94l39.2 -178.65 125.47 6.28c9.23,-78.21 -32.69,-171.39 -27.82,-270.35 48.18,38.85 83.49,79.17 130.73,122.2l127.96 111.14z"/>
    <path class="fil4" d="M8261.98 6861.53c-89.27,-3.03 -108.16,17.24 -223.96,-19.34 -186.32,-58.86 -348.38,-189.65 -449.24,-348 -64.57,-101.37 -99.58,-181.69 -131.44,-327.72 -40.21,-184.26 -1.92,-333.95 -27.33,-388.07 29.71,9.72 26.15,13.94 85.39,-67.58 -12.37,285.22 -20.52,426.73 168.49,690.41 188.31,262.7 519.28,390.76 578.09,460.3z"/>
    <path class="fil5" d="M10874.58 6209.64l-12.13 20.05c-95.89,-60.11 -10.4,4.11 -171.49,23.69 -62.08,7.55 -131.79,17.69 -190.96,22.93 -104.57,-27.82 -59.6,-43.31 -177.95,-132.71l59 -120.91c57.28,-22.71 160.22,-9.38 229.2,-31.18 106.93,-33.79 80.53,-142.67 172.7,-128.43 3.95,33.77 -1.77,64.39 0.39,97.51 5.75,88.3 92.29,126.07 91.24,249.05z"/>
    <path class="fil5" d="M10941.98 6178.91c-30.9,-31.46 -6.49,-0.17 -25.91,-39.25l-59.79 -120.98c-21.39,-45.22 -44.44,-110.29 -31.81,-178.98 45.1,-13.99 96.27,-21.02 139.93,-43.2 32.27,-16.39 90.87,-58.15 124.66,-84.51 42.29,-33 68.95,-54.37 109.57,-95.35 59.22,-59.74 22.9,-40.35 94.75,-74.81 2.39,-1.15 5.48,-2.49 7.79,-3.65 15.01,-7.57 11.82,-5.18 23.09,-13.4 -0.43,23.27 -48.82,162.96 -59.98,207.15 -38.39,151.89 -72.03,248.75 -212.09,307.92 -93.75,39.61 -75.01,43.81 -110.21,139.06z"/>
    <path class="fil5" d="M8725.32 5705.34l2.85 18.05c0.12,15.83 0.88,10.79 -1.24,29.62 -12.32,109.22 -16.17,169.43 73.97,296.41 34.25,48.25 57.63,76.16 105.53,130.12 23.83,26.85 40.36,38.69 65.11,63.65 64.28,64.84 58.31,46.16 37.53,57.13 -182.07,-66.74 -488.29,-367.85 -609.27,-575.23 -29.14,-49.97 -57.24,-116.55 -65.47,-177.9 51.64,32.12 94.62,83.6 163.27,111.96 85.25,35.22 143.64,36.35 227.72,46.19z"/>
    <path class="fil6" d="M9328.05 3690.85c41.55,-49.92 70.5,-54.34 124.34,-66.62 57.8,-13.19 83.09,-43.03 117.41,-83.77 182.91,-39.75 132.42,101.54 148.82,245.45 4.8,42.09 19.56,72.03 21.37,109.8 -68.01,23.75 -137.7,37.88 -220.25,31.19 -58.76,-4.77 -181.89,-30.1 -235.54,-62.09 -29.67,-17.69 -19.48,-13.59 -26.74,-21.71 105.53,-119.09 280.01,-99.74 395.86,-95.43 -85.98,-87.11 -227.86,-70.45 -325.27,-56.82z"/>
    <path class="fil6" d="M9881.46 4028.22c-8.69,-42.65 -9.85,-85.81 -19.43,-134.12 -9.31,-46.95 -28.41,-70.72 -50.03,-116.5 -51.16,-108.4 -53.41,-141.98 -26.96,-280.99 2.21,-35.37 -4.75,-25.85 30.82,-10.4 9.3,49.01 24.48,-6.33 124.86,68.33 52.87,39.33 90.35,84.39 105.74,149.81 33.94,144.16 -66.95,297.2 -165,323.87z"/>
   </g>
  </g>
 </g>
</svg>
