<svg xmlns="http://www.w3.org/2000/svg" width="53.389" height="52.101" viewBox="0 0 53.389 52.101">
  <g id="Group_123" data-name="Group 123" transform="translate(-917.09 1010.401)">
    <path id="Path_107" data-name="Path 107" d="M-2756.139,244.674c0,.031.015.046.015.077l.092.244a1.443,1.443,0,0,1-.275.153l-.092.046c-.872.413-.444.184-1.147.9a13.063,13.063,0,0,1-1.331,1.162,13.318,13.318,0,0,1-1.514,1.025,9.893,9.893,0,0,1-1.7.52,3.616,3.616,0,0,0,.382,2.172l.734,1.468c.23.475-.061.092.306.475l-.81.382c0-1.5-1.041-1.958-1.117-3.029-.015-.4.046-.764,0-1.177-1.117-.169-.795,1.147-2.1,1.56-.841.26-2.08.092-2.783.367l-.7,1.468c1.423,1.086.887,1.27,2.157,1.606l-.245.092c-.031.016-.168.061-.214.077a2.275,2.275,0,0,1-1.377.244c.138-1.5-1.529-.627-.245-3.885l-3.441-.581c.275-.428.336-.489.6-.964.444-.872.245-.795.276-.994a.168.168,0,0,0-.031-.153,5.189,5.189,0,0,1,1.514-2.906c1-.948,1.255-.811,2.631-1.163.9-.214,1.989-.718,2.861-.826,1.575-.168,2.692.9,3.763.934l1.391-4.237c.169-.582.322-.934.077-1.408-1.453,2.876-3.824,3.411-6.761,4.008-1.575.306-2.279.841-4.222.581-1.973-.275-3.166-.979-4.818-.229-.015-.444.153-.536.474-.9a13,13,0,0,0,2.065-2.524c.643-2.34-1.866-3.258-1.958-3.334.276-.291.413-.031.23-.337.642-1.346,3-3.013,3.166-4.237a2.946,2.946,0,0,0-.887-2.294c-1.331-1.132-1.851-.2-2.2-.9.184-.5.169-.229.52-.627l-.78-.137.107-.551a3.474,3.474,0,0,0,2-3.916,3.054,3.054,0,0,0-1.285-1.82c-1.208-.9-1.392-.229-1.514-.826l.168-.061c.169-.811-.015-.046.352-.306.122.382.015.245.5.138.153-.031.4-.107.6-.169a2.978,2.978,0,0,0,1.01-.55c.627-.5,1.407-1.209,2.34-.306.077,1.285-.4,2.126.276,3.243.244-1.744,1.086-3.84,2.554-4.176a5.508,5.508,0,0,1,2.769.505,5.028,5.028,0,0,1,3.028,3.441c.245.7.214,1.514.474,2.279.474,1.438,1.193.505,2.081,4.023,1.193,4.772-.108,5.277.26,7.725a10.842,10.842,0,0,1,.229,2.432,17.274,17.274,0,0,1-1.591,5.613c-.688,1.285-2.753,2.111-2.692,3.916,1.958.612,3.824-2.922,5.828-3.35Z" transform="translate(3726 -1227)" fill="#d4d4bb" fill-rule="evenodd"/>
    <path id="Path_108" data-name="Path 108" d="M-2776.437,243.068l.474.229c-1.177,2.448-1.958,4.161-.642,6.287a4.841,4.841,0,0,0,2.065,2,16.238,16.238,0,0,0,3.258,1.392c-1.361,1.162-4.849,1.331-7.113.9-.428-.076-.963-.2-1.376-.306-.964-.275-.918-.413-1.316-.2l-1.254-.6c1.208,1.147,3.579,3.09,5.338,3.579a4.83,4.83,0,0,0,1.866.291c1.1.138.352,0,.612.336-1.224.306-2.034.995-3.961.7-1.912-.306-2.6-1.1-3.932-1.988.536,1.682,1.469,1.957,3.427,2.967-1.056.795-4.467,1.1-6.165.5-2.217-.765-3.411-2.555-4.619-3.824,1.071,2.86,3.1,3.548,3.151,4.711-1.438,1.315-5.69-2.233-6.057-3.059a6.043,6.043,0,0,0,1.438,2.6c1.009.964,2.065,1.055,2.34,2.432-1.989-.031-3.579-1.453-4.864-2.585a20.864,20.864,0,0,0-4.145-3.243,8.214,8.214,0,0,1-2.754-3.3,11.167,11.167,0,0,1-.795-6.072l.7,1.315.061-3.273c.612,1.055.505,3.09,2.371,5.552a14.481,14.481,0,0,0,4.986,4.13l-.26-.336c-.015-.031-.229-.245-.275-.291l-1.851-1.8a16.35,16.35,0,0,1-3.2-4.7,8.416,8.416,0,0,1-.658-4.5l.016-.091c.52.673.321,1.376.887,1.85a3.171,3.171,0,0,1,.214-2.294,5.715,5.715,0,0,0,1.27,2.57,8.769,8.769,0,0,0,2.416,1.927l-.367-.795a2.269,2.269,0,0,1-.26-.612,3.139,3.139,0,0,1-.2-1.484,17.361,17.361,0,0,1,1.04,1.652c.23.4.765,1.132,1.1,1.576,1.988,2.661,6.271,7.388,9.835,7.525l-.474-.367c.245-.122.321.107-.459-.688-.291-.306-.5-.444-.78-.765a16.768,16.768,0,0,1-1.285-1.576,4.121,4.121,0,0,1-.9-3.594,1.576,1.576,0,0,0,.015-.367l-.031-.214c-.55-.872-1.346-.475-2.08-2.463.551.26,2.1,1.545,3.243,1.055a3.764,3.764,0,0,1-.9-3.472,7.028,7.028,0,0,0,1.148,1.851c2.126,2.493,4.527,2.769,7.342,3.3-.459-.184-.536-.153-.765-.474.168-.184.474.2-.383-.428-1.239-.918-2.875-2.28-2.783-4.039a3.877,3.877,0,0,0,2.921.092c-.306-.658-1.1-1.055-.627-2.325.994.719,1.484,2.891,3.426,2.952.689.031.352.046.566-.168Z" transform="translate(3726 -1227)" fill="#76754b" fill-rule="evenodd"/>
    <path id="Path_109" data-name="Path 109" d="M-2785.859,232.468l-1.56-1.346c-.566-.52-1-1.01-1.576-1.484-.061,1.209.444,2.34.337,3.289l-1.53-.077-.474,2.157c-.015-.321-.015,2.065,0,2.386-.23.092-.765-.168-.857,1.132a10.829,10.829,0,0,1-.076,1.713l-1.01-.459c-.107.673.092,1.041-.2,1.423-.52.138-1.177-.566-2.2-.688.061.627.52.872,1.239,1.055,1.7.444,1.116.658,1.973.78.321-.673-.015-.811.214-1.529.474.137.474.29.949.474.29-.8-.092-1.866.305-2.509.306-.489.169-.26.7-.275.107-1.331-.306-2.279.49-4.681l1.5.092-.261-1.851,1.821.566a8.121,8.121,0,0,0,1.8,6.363c-1.285-.566-2.188-1.713-3.243-2.432-.168,2.341,1.377,5.69,3.028,7.633.261.306.521.551.75.872-1.407-.474-2.294-2.157-2.814-2.891l-1.392-1.836a20.216,20.216,0,0,0-.169,4.253,11.534,11.534,0,0,1-2.523-1.805,9.979,9.979,0,0,0,.152,1.789c.153.888.184.689.612,1.408-1.392-.337-2.233-1.9-3.365-2.631a18.887,18.887,0,0,0,.658,3.717,7.8,7.8,0,0,1-1.729-1.912c-.3-.383-.458-.719-.764-1.1a6.471,6.471,0,0,0-.75-.994c-.673,1.423-.153,1.836.168,2.784-1.254-.627-2.6-2.738-2.355-4.191a11.6,11.6,0,0,0,1.193-1.01c.489-.428.887-.657,1.392-1.04,2.646-1.973.612-4.42,1.835-7.678,1.346-3.564.322-2.937.689-4.146.688-.183.948.138,1.606.077.367-1.361-1.545-.413.734-3.488,2.769-3.717,1.667-4.68,5.032-5.491a8.04,8.04,0,0,1,4.084-.336c.107.351-.2,0,.123.321-1.469.015-3.044.214-3.625,1.392a4.006,4.006,0,0,0,.413,3.946c-1.025-.413-1.209-1.529-1.5-2.478-.153-.5-.107-.581-.52-.78-.842,1.667.076,4.161.673,5.14s.933.963,2.126,1.529a2.536,2.536,0,0,1,1.56,1.683,7.572,7.572,0,0,0-2.34-.826c.107.474.29.6.611,1.04l2.065,2.57c-1.1,1.866-1.208.994-.887,3.288-1.269-.535-2.141-2.095-3.12-2.906Z" transform="translate(3726 -1227)" fill="#3d3d3d" fill-rule="evenodd"/>
    <path id="Path_110" data-name="Path 110" d="M-2777.309,220.935a2.375,2.375,0,0,1-1.422,1.009,2.147,2.147,0,0,0-1.5.811,9.134,9.134,0,0,0-1.622,1.071l-.688.4c1.377,1.209,2.616,2.937,5.8,2.815a17.58,17.58,0,0,0,2.081-.383c-.092,1.867-.612,2.647-1.958,3.259-1.989.917-2.371.107-4.375-.031a14.926,14.926,0,0,1,2.065,1.682c-.122.582-.352,1.714-.826,1.912-.642.245-1.086-.4-2.05.046-.765,1.637.138,2.478.627,3.427-1.912-.459-3.135-1.928-4.145-2.891-.153,1.636,1.117,4.283,2.157,5.476.352.413,1.132.994,1.438,1.453-2.035.352-3.717-1.9-4.834-2.585.077,1.483,1.545,3.854,2.371,4.956.78,1.055,2.891,3.273,4.635,3.625.229.321.306.29.765.474-2.815-.535-5.216-.811-7.342-3.3a7.028,7.028,0,0,1-1.148-1.851,3.764,3.764,0,0,0,.9,3.472c-1.147.49-2.692-.795-3.243-1.055.734,1.988,1.53,1.591,2.08,2.463a9.048,9.048,0,0,1-2.768-.566,11.748,11.748,0,0,1-1.973-1.362,6.27,6.27,0,0,0,.795,2.157c1.468,2.524,5.185,6.164,7.388,6.975l.474.367c-3.564-.137-7.847-4.864-9.835-7.525-.337-.444-.872-1.178-1.1-1.576A17.361,17.361,0,0,0-2795.6,244a3.139,3.139,0,0,0,.2,1.484,2.269,2.269,0,0,0,.26.612l.367.795a8.769,8.769,0,0,1-2.416-1.927,5.715,5.715,0,0,1-1.27-2.57,3.171,3.171,0,0,0-.214,2.294c-.566-.474-.367-1.177-.887-1.85.015-.031.076-.107.076-.077l1.484-1.1c-.245,1.453,1.1,3.564,2.355,4.191-.321-.948-.841-1.361-.168-2.784a6.471,6.471,0,0,1,.75.994c.306.383.459.719.764,1.1a7.8,7.8,0,0,0,1.729,1.912,18.887,18.887,0,0,1-.658-3.717c1.132.734,1.973,2.294,3.365,2.631-.428-.719-.459-.52-.612-1.408a9.979,9.979,0,0,1-.152-1.789,11.534,11.534,0,0,0,2.523,1.805,20.216,20.216,0,0,1,.169-4.253l1.392,1.836c.52.734,1.407,2.417,2.814,2.891-.229-.321-.489-.566-.75-.872-1.651-1.943-3.2-5.292-3.028-7.633,1.055.719,1.958,1.866,3.243,2.432a8.121,8.121,0,0,1-1.8-6.363c.03-.382-.031-.122.214-.168.979.811,1.851,2.371,3.12,2.906-.321-2.294-.214-1.422.887-3.288l-2.065-2.57c-.321-.444-.5-.566-.611-1.04a7.572,7.572,0,0,1,2.34.826,2.536,2.536,0,0,0-1.56-1.683c-1.193-.566-1.515-.551-2.126-1.529s-1.515-3.473-.673-5.14c.413.2.367.275.52.78.29.949.474,2.065,1.5,2.478a4.006,4.006,0,0,1-.413-3.946c.581-1.178,2.156-1.377,3.625-1.392-.321-.321-.016.03-.123-.321l.383.153c.092.795,1.009.764,1.774,1.177.979.536.535.857,1.973,1.056Z" transform="translate(3726 -1227)" fill="#d4d4bb" fill-rule="evenodd"/>
    <path id="Path_111" data-name="Path 111" d="M-2773.531,226.839l-.107.551.78.137c-.351.4-.336.123-.52.627-.275.2-.076-.015-.306.322,0,.03-.2.4-.2.413-.811,1.774-1.071,2.447-2.968,2.524-1.055.045-.749.061-1.346.917-.872,1.224-1.407,1.377-.994,3.2.168.765.841,2.57,1.774,1.958.168-.857-.29-.627-.321-1.591,1.04.857,1.163.321,1.943-.214a2.868,2.868,0,0,1,2.34-.092c.183.306.046.046-.23.337-1.284.183-2.447,1.9-3.166,2.723a5.831,5.831,0,0,1-1.147.933,3.731,3.731,0,0,0,1.56,3.487c-.214.214.123.2-.566.168-1.942-.061-2.432-2.233-3.426-2.952-.474,1.27.321,1.667.627,2.325a3.877,3.877,0,0,1-2.921-.092c-.092,1.759,1.544,3.121,2.783,4.039.857.627.551.244.383.428-1.744-.352-3.855-2.57-4.635-3.625-.826-1.1-2.294-3.473-2.371-4.956,1.117.688,2.8,2.937,4.834,2.585-.306-.459-1.086-1.04-1.438-1.453-1.04-1.193-2.31-3.84-2.157-5.476,1.01.963,2.233,2.432,4.145,2.891-.489-.949-1.392-1.79-.627-3.427.964-.443,1.408.2,2.05-.046.474-.2.7-1.33.826-1.912a14.926,14.926,0,0,0-2.065-1.682c2,.138,2.386.948,4.375.031,1.346-.612,1.866-1.392,1.958-3.259a17.58,17.58,0,0,1-2.081.383c-3.181.122-4.42-1.606-5.8-2.815l.688-.4a9.134,9.134,0,0,1,1.622-1.071c1.178-.168,2.891-.367,3.946.688-1.407-.046-3.533-.29-4.8,1.163.092.092-.046.046.321.26a9.006,9.006,0,0,0,2.861.749,6.274,6.274,0,0,0,2.661-.382c-.015-.459-.2-.811-.26-1.331-.2-1.744.413-3.457-1.805-2.967-1.438-.2-.994-.52-1.973-1.056-.765-.413-1.682-.382-1.774-1.177.933.168,2.585.688,3.518.979a13.947,13.947,0,0,1,1.545.627c.81.382.7.428,1.3.091a4.23,4.23,0,0,0,.321,3.411,4.93,4.93,0,0,1,.612,1.408c.122.581.138,1.116.229,1.621Z" transform="translate(3726 -1227)" fill="#3d3d3d" fill-rule="evenodd"/>
    <path id="Path_112" data-name="Path 112" d="M-2770.7,247.932c-.367.306-.076.306-.26-.076-.459-.918.138-3.3.337-4.146a7.951,7.951,0,0,0-3.473-.2c-1.254.321-1.437.7-1.483,2.355-.077,2.417,1.468,3.472,4.038,4.176l3.441.581c-1.284,3.258.383,2.386.245,3.885a11.806,11.806,0,0,1-6.149,1.53c-3-.184-4.665-1.7-7.082-2.661.4-.215.352-.077,1.316.2.413.107.948.23,1.376.306,2.264.429,5.752.26,7.113-.9a16.238,16.238,0,0,1-3.258-1.392,4.841,4.841,0,0,1-2.065-2c-1.316-2.126-.535-3.839.642-6.287a7.95,7.95,0,0,0,1.7-.611c1.652-.75,2.845-.046,4.818.229,1.943.26,2.647-.275,4.222-.581,2.937-.6,5.308-1.132,6.761-4.008.245.474.092.826-.077,1.408l-1.391,4.237c-1.071-.031-2.188-1.1-3.763-.934-.872.108-1.958.612-2.861.826-1.376.352-1.636.215-2.631,1.163a5.189,5.189,0,0,0-1.514,2.906Z" transform="translate(3726 -1227)" fill="#3d3d3d" fill-rule="evenodd"/>
    <path id="Path_113" data-name="Path 113" d="M-2756.139,244.674c-2,.428-3.87,3.962-5.828,3.35-.061-1.805,2-2.631,2.692-3.916a17.274,17.274,0,0,0,1.591-5.613,10.842,10.842,0,0,0-.229-2.432c-.368-2.448.933-2.953-.26-7.725-.888-3.518-1.607-2.585-2.081-4.023-.26-.765-.229-1.575-.474-2.279a5.028,5.028,0,0,0-3.028-3.441,5.508,5.508,0,0,0-2.769-.505c-1.468.336-2.31,2.432-2.554,4.176-.673-1.117-.2-1.958-.276-3.243-.933-.9-1.713-.2-2.34.306a2.978,2.978,0,0,1-1.01.55c-.2.062-.443.138-.6.169-.49.107-.383.244-.5-.138.673-.184,3-2.279,3.61-2.769,2.218-1.82,8.474,1.392,9.866,2.983a15.33,15.33,0,0,1,2.019,4.268c1.132,2.86,2.8,2.829,2.692,9.223-.046,1.973.275,6.807-.046,8-.321,1.147-.138,2.233-.474,3.059Z" transform="translate(3726 -1227)" fill="#3d3d3d" fill-rule="evenodd"/>
    <path id="Path_114" data-name="Path 114" d="M-2794.41,266.532c-1.805.459-1.7,2.325-3.762,2.157-.9-1.239-.7-2.325-3.564-4.589-4.237-3.335-4.314-5.17-5.446-10.264a26.048,26.048,0,0,0-1.728-5.766c.367-.184.367-.015.994-.536.535.108.306.092.688.368.383-.459.26-.689.75-.719.688-.046-.23.122.275.046l.612-1.148a29.651,29.651,0,0,1-.061,3.411,17.5,17.5,0,0,0,6.485,13.109c.811.688,1.545,1.315,2.341,1.958a26.2,26.2,0,0,1,2.416,1.973Z" transform="translate(3726 -1227)" fill="#3d3d3d" fill-rule="evenodd"/>
    <path id="Path_115" data-name="Path 115" d="M-2803.251,248.07c.306.658-.153,2.462.337,4.7a10.725,10.725,0,0,0,1.591,3.977,10.232,10.232,0,0,0,5.445,4.221,6.485,6.485,0,0,0,2.723.23l3.472,1.988c-.5.643-1.3.474-2.05,1.3a10.179,10.179,0,0,1-2.065,1.438c-.7-.505-.428-.948-2.34-1.973-2.692-1.422-2.723-1.866-4.436-4.084a18.1,18.1,0,0,1-1.606-2.509,17.308,17.308,0,0,1-2.065-5.583c-.734-4.053.413-4.879.857-6.9.183.275.076-.015.137.321l-.061,1.254a14.849,14.849,0,0,1,.061,1.622Z" transform="translate(3726 -1227)" fill="#3d3d3d" fill-rule="evenodd"/>
    <path id="Path_116" data-name="Path 116" d="M-2773.454,235.588a2.868,2.868,0,0,0-2.34.092c-.78.535-.9,1.071-1.943.214.031.964.489.734.321,1.591-.933.612-1.606-1.193-1.774-1.958-.413-1.82.122-1.973.994-3.2.6-.856.291-.872,1.346-.917,1.9-.077,2.157-.75,2.968-2.524,0-.016.2-.383.2-.413.23-.337.031-.123.306-.322.352.7.872-.229,2.2.9a2.946,2.946,0,0,1,.887,2.294c-.168,1.224-2.524,2.891-3.166,4.237Z" transform="translate(3726 -1227)" fill="#bfbc9f" fill-rule="evenodd"/>
    <path id="Path_117" data-name="Path 117" d="M-2788.9,262.035a.126.126,0,0,0-.077.077.35.35,0,0,1-.076.076c-.031.015-.061.061-.076.076a.858.858,0,0,0-.138.169.3.3,0,0,0-.061.092.322.322,0,0,0-.062.076c-.26.413-.076.26-.29.581l-3.472-1.988c-.719-.842-4.727-2.386-7.021-5.583s-2.187-4.91-2.035-8.367c-.718.994-.673.933-1.04.826a14.849,14.849,0,0,0-.061-1.622l.061-1.254c-.061-.336.046-.046-.137-.321l.229-.26c.5.275,1.3.78,2.1-.015l.734-.857c.122-.138.229-.26.321-.382a2.528,2.528,0,0,0,.2-.23c.229-.229.046-.076.229-.2a8.416,8.416,0,0,0,.658,4.5,16.35,16.35,0,0,0,3.2,4.7l1.851,1.8c.046.046.26.26.275.291l.26.336a14.481,14.481,0,0,1-4.986-4.13c-1.866-2.462-1.759-4.5-2.371-5.552l-.061,3.273-.7-1.315a11.167,11.167,0,0,0,.795,6.072,8.214,8.214,0,0,0,2.754,3.3,20.864,20.864,0,0,1,4.145,3.243c1.285,1.132,2.875,2.554,4.864,2.585Z" transform="translate(3726 -1227)" fill="#d4d4bb" fill-rule="evenodd"/>
    <path id="Path_118" data-name="Path 118" d="M-2758.5,235.267c-1.132.428-2.325-.352-3.579-.642a9.478,9.478,0,0,0-3.518-.138c-2.463.4-3.748,1.346-3.916,4.39a5.33,5.33,0,0,1-.107-3.855l-2.615.352c1.269-1.346,5.705-2,7.6-2.294,5-.719,3.7-.918,5.8-5.354.214,1.01.321,2.524.443,3.61.184,1.514-.26,2.631-.107,3.931Z" transform="translate(3726 -1227)" fill="#3d3d3d" fill-rule="evenodd"/>
    <path id="Path_119" data-name="Path 119" d="M-2774.265,242.686a7.95,7.95,0,0,1-1.7.611l-.474-.229a3.731,3.731,0,0,1-1.56-3.487,5.831,5.831,0,0,0,1.147-.933c.719-.826,1.882-2.54,3.166-2.723.092.076,2.6.994,1.958,3.334a13,13,0,0,1-2.065,2.524c-.321.367-.489.459-.474.9Z" transform="translate(3726 -1227)" fill="#bfbc9f" fill-rule="evenodd"/>
    <path id="Path_120" data-name="Path 120" d="M-2759.657,226a26.36,26.36,0,0,0-3.09-.337c-1.208-.107-2.08-.428-2.952.092-1.744,1.025-2.264,2.83-2.6,5.078-.78-1.835-.52-3.227.03-5.506a16,16,0,0,0-3.854,1.851c.581-1.469,3.931-3.213,5.139-3.61,3.4-1.117,4.895,2.355,4.849-3.3,1.331,1.025.535,3.64,2,5.093.351.367.321.26.474.643Z" transform="translate(3726 -1227)" fill="#3d3d3d" fill-rule="evenodd"/>
    <path id="Path_121" data-name="Path 121" d="M-2770.7,247.932a.168.168,0,0,1,.031.153c-.031.2.168.122-.276.994-.26.475-.321.536-.6.964-2.57-.7-4.115-1.759-4.038-4.176.046-1.652.229-2.034,1.483-2.355a7.951,7.951,0,0,1,3.473.2c-.2.842-.8,3.228-.337,4.146.184.382-.107.382.26.076Z" transform="translate(3726 -1227)" fill="#bfbc9f" fill-rule="evenodd"/>
    <path id="Path_122" data-name="Path 122" d="M-2785.859,232.468c-.245.046-.184-.214-.214.168l-1.821-.566.261,1.851-1.5-.092c-.8,2.4-.383,3.35-.49,4.681-.535.015-.4-.214-.7.275-.4.643-.015,1.713-.305,2.509-.475-.184-.475-.337-.949-.474-.229.718.107.856-.214,1.529-.857-.122-.275-.336-1.973-.78-.719-.183-1.178-.428-1.239-1.055,1.025.122,1.682.826,2.2.688.291-.382.092-.75.2-1.423l1.01.459a10.829,10.829,0,0,0,.076-1.713c.092-1.3.627-1.04.857-1.132a17.423,17.423,0,0,1,0-2.386l.474-2.157,1.53.077c.107-.949-.4-2.08-.337-3.289.581.474,1.01.964,1.576,1.484Z" transform="translate(3726 -1227)" fill="#858564" fill-rule="evenodd"/>
    <path id="Path_123" data-name="Path 123" d="M-2793.155,261.194a6.485,6.485,0,0,1-2.723-.23,10.232,10.232,0,0,1-5.445-4.221,10.725,10.725,0,0,1-1.591-3.977c-.49-2.234-.031-4.038-.337-4.7.367.107.322.168,1.04-.826-.152,3.457-.244,5.17,2.035,8.367s6.3,4.741,7.021,5.583Z" transform="translate(3726 -1227)" fill="#76754b" fill-rule="evenodd"/>
    <path id="Path_124" data-name="Path 124" d="M-2761.477,253.3l-.153.229c-1.163-.718-.123.062-2.081.291-.749.092-1.59.214-2.309.275-1.27-.336-.734-.52-2.157-1.606l.7-1.468c.7-.275,1.942-.107,2.783-.367,1.3-.413.979-1.729,2.1-1.56.046.413-.015.78,0,1.177.076,1.071,1.117,1.53,1.117,3.029Z" transform="translate(3726 -1227)" fill="#3d3d3d" fill-rule="evenodd"/>
    <path id="Path_125" data-name="Path 125" d="M-2760.667,252.919c-.367-.383-.076,0-.306-.475l-.734-1.468a3.616,3.616,0,0,1-.382-2.172,9.893,9.893,0,0,0,1.7-.52,13.318,13.318,0,0,0,1.514-1.025,13.063,13.063,0,0,0,1.331-1.162c.7-.719.275-.49,1.147-.9l.092-.046a1.443,1.443,0,0,0,.275-.153c0,.276-.6,1.974-.719,2.509-.474,1.835-.887,3.013-2.585,3.732-1.132.474-.9.535-1.331,1.683Z" transform="translate(3726 -1227)" fill="#3d3d3d" fill-rule="evenodd"/>
    <path id="Path_126" data-name="Path 126" d="M-2787.542,247.183l.031.214a1.576,1.576,0,0,1-.015.367,4.121,4.121,0,0,0,.9,3.594,16.768,16.768,0,0,0,1.285,1.576c.275.321.489.459.78.765.78.795.7.566.459.688-2.2-.811-5.92-4.451-7.388-6.975a6.27,6.27,0,0,1-.795-2.157,11.748,11.748,0,0,0,1.973,1.362,9.048,9.048,0,0,0,2.768.566Z" transform="translate(3726 -1227)" fill="#3d3d3d" fill-rule="evenodd"/>
    <path id="Path_127" data-name="Path 127" d="M-2780.23,222.755a2.147,2.147,0,0,1,1.5-.811,2.375,2.375,0,0,0,1.422-1.009c2.218-.49,1.606,1.223,1.805,2.967.061.52.245.872.26,1.331a6.274,6.274,0,0,1-2.661.382,9.006,9.006,0,0,1-2.861-.749c-.367-.214-.229-.168-.321-.26,1.27-1.453,3.4-1.209,4.8-1.163-1.055-1.055-2.768-.856-3.946-.688Z" transform="translate(3726 -1227)" fill="#bfbc9f" fill-rule="evenodd"/>
    <path id="Path_128" data-name="Path 128" d="M-2773.531,226.839c-.091-.505-.107-1.04-.229-1.621a4.93,4.93,0,0,0-.612-1.408,4.23,4.23,0,0,1-.321-3.411c.031-.428-.061-.321.367-.122.122.6.306-.076,1.514.826a3.054,3.054,0,0,1,1.285,1.82,3.474,3.474,0,0,1-2,3.916Z" transform="translate(3726 -1227)" fill="#bfbc9f" fill-rule="evenodd"/>
  </g>
</svg>
